G04 (created by PCBNEW (2013-07-07 BZR 4022)-stable) date Thu 15 Aug 2013 04:15:35 CST*
%MOIN*%
G04 Gerber Fmt 3.4, Leading zero omitted, Abs format*
%FSLAX34Y34*%
G01*
G70*
G90*
G04 APERTURE LIST*
%ADD10C,0.00590551*%
%ADD11C,0.011811*%
%ADD12C,0.012*%
%ADD13C,0.0001*%
%ADD14C,0.008*%
%ADD15C,0.006*%
%ADD16C,0.003*%
%ADD17C,0.01*%
%ADD18C,0.0075*%
G04 APERTURE END LIST*
G54D10*
G54D11*
X42830Y-42129D02*
X42914Y-42157D01*
X42942Y-42185D01*
X42970Y-42242D01*
X42970Y-42326D01*
X42942Y-42382D01*
X42914Y-42410D01*
X42858Y-42439D01*
X42633Y-42439D01*
X42633Y-41848D01*
X42830Y-41848D01*
X42886Y-41876D01*
X42914Y-41904D01*
X42942Y-41960D01*
X42942Y-42017D01*
X42914Y-42073D01*
X42886Y-42101D01*
X42830Y-42129D01*
X42633Y-42129D01*
X43167Y-42045D02*
X43308Y-42439D01*
X43448Y-42045D02*
X43308Y-42439D01*
X43251Y-42579D01*
X43223Y-42607D01*
X43167Y-42635D01*
X44461Y-42382D02*
X44433Y-42410D01*
X44348Y-42439D01*
X44292Y-42439D01*
X44208Y-42410D01*
X44151Y-42354D01*
X44123Y-42298D01*
X44095Y-42185D01*
X44095Y-42101D01*
X44123Y-41989D01*
X44151Y-41932D01*
X44208Y-41876D01*
X44292Y-41848D01*
X44348Y-41848D01*
X44433Y-41876D01*
X44461Y-41904D01*
X44967Y-42439D02*
X44967Y-42129D01*
X44939Y-42073D01*
X44883Y-42045D01*
X44770Y-42045D01*
X44714Y-42073D01*
X44967Y-42410D02*
X44911Y-42439D01*
X44770Y-42439D01*
X44714Y-42410D01*
X44686Y-42354D01*
X44686Y-42298D01*
X44714Y-42242D01*
X44770Y-42214D01*
X44911Y-42214D01*
X44967Y-42185D01*
X45248Y-42439D02*
X45248Y-42045D01*
X45248Y-42157D02*
X45276Y-42101D01*
X45304Y-42073D01*
X45361Y-42045D01*
X45417Y-42045D01*
X45698Y-42439D02*
X45642Y-42410D01*
X45614Y-42354D01*
X45614Y-41848D01*
X46007Y-42439D02*
X45951Y-42410D01*
X45923Y-42382D01*
X45895Y-42326D01*
X45895Y-42157D01*
X45923Y-42101D01*
X45951Y-42073D01*
X46007Y-42045D01*
X46092Y-42045D01*
X46148Y-42073D01*
X46176Y-42101D01*
X46204Y-42157D01*
X46204Y-42326D01*
X46176Y-42382D01*
X46148Y-42410D01*
X46092Y-42439D01*
X46007Y-42439D01*
X46429Y-42410D02*
X46485Y-42439D01*
X46598Y-42439D01*
X46654Y-42410D01*
X46682Y-42354D01*
X46682Y-42326D01*
X46654Y-42270D01*
X46598Y-42242D01*
X46514Y-42242D01*
X46457Y-42214D01*
X46429Y-42157D01*
X46429Y-42129D01*
X46457Y-42073D01*
X46514Y-42045D01*
X46598Y-42045D01*
X46654Y-42073D01*
X47554Y-41848D02*
X47554Y-42270D01*
X47526Y-42354D01*
X47470Y-42410D01*
X47385Y-42439D01*
X47329Y-42439D01*
X48060Y-42410D02*
X48004Y-42439D01*
X47892Y-42439D01*
X47835Y-42410D01*
X47807Y-42354D01*
X47807Y-42129D01*
X47835Y-42073D01*
X47892Y-42045D01*
X48004Y-42045D01*
X48060Y-42073D01*
X48088Y-42129D01*
X48088Y-42185D01*
X47807Y-42242D01*
X48341Y-42045D02*
X48341Y-42439D01*
X48341Y-42101D02*
X48370Y-42073D01*
X48426Y-42045D01*
X48510Y-42045D01*
X48566Y-42073D01*
X48595Y-42129D01*
X48595Y-42439D01*
X48876Y-42439D02*
X48876Y-41848D01*
X48932Y-42214D02*
X49101Y-42439D01*
X49101Y-42045D02*
X48876Y-42270D01*
X49354Y-42439D02*
X49354Y-42045D01*
X49354Y-41848D02*
X49326Y-41876D01*
X49354Y-41904D01*
X49382Y-41876D01*
X49354Y-41848D01*
X49354Y-41904D01*
X49635Y-42045D02*
X49635Y-42439D01*
X49635Y-42101D02*
X49663Y-42073D01*
X49719Y-42045D01*
X49804Y-42045D01*
X49860Y-42073D01*
X49888Y-42129D01*
X49888Y-42439D01*
X50141Y-42410D02*
X50197Y-42439D01*
X50310Y-42439D01*
X50366Y-42410D01*
X50394Y-42354D01*
X50394Y-42326D01*
X50366Y-42270D01*
X50310Y-42242D01*
X50226Y-42242D01*
X50169Y-42214D01*
X50141Y-42157D01*
X50141Y-42129D01*
X50169Y-42073D01*
X50226Y-42045D01*
X50310Y-42045D01*
X50366Y-42073D01*
X42886Y-43145D02*
X42886Y-43623D01*
X42858Y-43679D01*
X42830Y-43707D01*
X42773Y-43735D01*
X42689Y-43735D01*
X42633Y-43707D01*
X42886Y-43510D02*
X42830Y-43539D01*
X42717Y-43539D01*
X42661Y-43510D01*
X42633Y-43482D01*
X42605Y-43426D01*
X42605Y-43257D01*
X42633Y-43201D01*
X42661Y-43173D01*
X42717Y-43145D01*
X42830Y-43145D01*
X42886Y-43173D01*
X43251Y-43539D02*
X43195Y-43510D01*
X43167Y-43482D01*
X43139Y-43426D01*
X43139Y-43257D01*
X43167Y-43201D01*
X43195Y-43173D01*
X43251Y-43145D01*
X43336Y-43145D01*
X43392Y-43173D01*
X43420Y-43201D01*
X43448Y-43257D01*
X43448Y-43426D01*
X43420Y-43482D01*
X43392Y-43510D01*
X43336Y-43539D01*
X43251Y-43539D01*
X43786Y-43539D02*
X43729Y-43510D01*
X43701Y-43482D01*
X43673Y-43426D01*
X43673Y-43257D01*
X43701Y-43201D01*
X43729Y-43173D01*
X43786Y-43145D01*
X43870Y-43145D01*
X43926Y-43173D01*
X43954Y-43201D01*
X43983Y-43257D01*
X43983Y-43426D01*
X43954Y-43482D01*
X43926Y-43510D01*
X43870Y-43539D01*
X43786Y-43539D01*
X44236Y-43482D02*
X44264Y-43510D01*
X44236Y-43539D01*
X44207Y-43510D01*
X44236Y-43482D01*
X44236Y-43539D01*
X44770Y-43145D02*
X44770Y-43623D01*
X44742Y-43679D01*
X44714Y-43707D01*
X44657Y-43735D01*
X44573Y-43735D01*
X44517Y-43707D01*
X44770Y-43510D02*
X44714Y-43539D01*
X44601Y-43539D01*
X44545Y-43510D01*
X44517Y-43482D01*
X44489Y-43426D01*
X44489Y-43257D01*
X44517Y-43201D01*
X44545Y-43173D01*
X44601Y-43145D01*
X44714Y-43145D01*
X44770Y-43173D01*
X45135Y-43539D02*
X45079Y-43510D01*
X45051Y-43454D01*
X45051Y-42948D01*
X45782Y-42920D02*
X45276Y-43679D01*
X46232Y-42948D02*
X46120Y-42948D01*
X46064Y-42976D01*
X46035Y-43004D01*
X45979Y-43089D01*
X45951Y-43201D01*
X45951Y-43426D01*
X45979Y-43482D01*
X46007Y-43510D01*
X46064Y-43539D01*
X46176Y-43539D01*
X46232Y-43510D01*
X46260Y-43482D01*
X46288Y-43426D01*
X46288Y-43285D01*
X46260Y-43229D01*
X46232Y-43201D01*
X46176Y-43173D01*
X46064Y-43173D01*
X46007Y-43201D01*
X45979Y-43229D01*
X45951Y-43285D01*
X46795Y-42948D02*
X46682Y-42948D01*
X46626Y-42976D01*
X46598Y-43004D01*
X46542Y-43089D01*
X46513Y-43201D01*
X46513Y-43426D01*
X46542Y-43482D01*
X46570Y-43510D01*
X46626Y-43539D01*
X46738Y-43539D01*
X46795Y-43510D01*
X46823Y-43482D01*
X46851Y-43426D01*
X46851Y-43285D01*
X46823Y-43229D01*
X46795Y-43201D01*
X46738Y-43173D01*
X46626Y-43173D01*
X46570Y-43201D01*
X46542Y-43229D01*
X46513Y-43285D01*
X47048Y-43145D02*
X47188Y-43539D01*
X47329Y-43145D01*
X47751Y-43229D02*
X47554Y-43229D01*
X47554Y-43539D02*
X47554Y-42948D01*
X47835Y-42948D01*
X47976Y-42948D02*
X48173Y-43539D01*
X48369Y-42948D01*
X48566Y-43539D02*
X48566Y-43145D01*
X48566Y-42948D02*
X48538Y-42976D01*
X48566Y-43004D01*
X48594Y-42976D01*
X48566Y-42948D01*
X48566Y-43004D01*
X48656Y-31045D02*
X48796Y-31439D01*
X48937Y-31045D01*
X49275Y-30848D02*
X49331Y-30848D01*
X49387Y-30876D01*
X49415Y-30904D01*
X49443Y-30960D01*
X49471Y-31073D01*
X49471Y-31214D01*
X49443Y-31326D01*
X49415Y-31382D01*
X49387Y-31410D01*
X49331Y-31439D01*
X49275Y-31439D01*
X49218Y-31410D01*
X49190Y-31382D01*
X49162Y-31326D01*
X49134Y-31214D01*
X49134Y-31073D01*
X49162Y-30960D01*
X49190Y-30904D01*
X49218Y-30876D01*
X49275Y-30848D01*
X49724Y-31382D02*
X49753Y-31410D01*
X49724Y-31439D01*
X49696Y-31410D01*
X49724Y-31382D01*
X49724Y-31439D01*
X50315Y-31439D02*
X49978Y-31439D01*
X50146Y-31439D02*
X50146Y-30848D01*
X50090Y-30932D01*
X50034Y-30989D01*
X49978Y-31017D01*
X40488Y-29870D02*
X40769Y-29870D01*
X40432Y-30039D02*
X40629Y-29448D01*
X40826Y-30039D01*
X41276Y-30039D02*
X41276Y-29448D01*
X41276Y-30010D02*
X41219Y-30039D01*
X41107Y-30039D01*
X41051Y-30010D01*
X41023Y-29982D01*
X40994Y-29926D01*
X40994Y-29757D01*
X41023Y-29701D01*
X41051Y-29673D01*
X41107Y-29645D01*
X41219Y-29645D01*
X41276Y-29673D01*
X41501Y-29645D02*
X41641Y-30039D01*
X41782Y-29645D01*
X42260Y-30039D02*
X42260Y-29729D01*
X42232Y-29673D01*
X42176Y-29645D01*
X42063Y-29645D01*
X42007Y-29673D01*
X42260Y-30010D02*
X42204Y-30039D01*
X42063Y-30039D01*
X42007Y-30010D01*
X41979Y-29954D01*
X41979Y-29898D01*
X42007Y-29842D01*
X42063Y-29814D01*
X42204Y-29814D01*
X42260Y-29785D01*
X42541Y-29645D02*
X42541Y-30039D01*
X42541Y-29701D02*
X42569Y-29673D01*
X42625Y-29645D01*
X42710Y-29645D01*
X42766Y-29673D01*
X42794Y-29729D01*
X42794Y-30039D01*
X43329Y-30010D02*
X43272Y-30039D01*
X43160Y-30039D01*
X43104Y-30010D01*
X43075Y-29982D01*
X43047Y-29926D01*
X43047Y-29757D01*
X43075Y-29701D01*
X43104Y-29673D01*
X43160Y-29645D01*
X43272Y-29645D01*
X43329Y-29673D01*
X43807Y-30010D02*
X43750Y-30039D01*
X43638Y-30039D01*
X43582Y-30010D01*
X43553Y-29954D01*
X43553Y-29729D01*
X43582Y-29673D01*
X43638Y-29645D01*
X43750Y-29645D01*
X43807Y-29673D01*
X43835Y-29729D01*
X43835Y-29785D01*
X43553Y-29842D01*
X44341Y-30039D02*
X44341Y-29448D01*
X44341Y-30010D02*
X44285Y-30039D01*
X44172Y-30039D01*
X44116Y-30010D01*
X44088Y-29982D01*
X44060Y-29926D01*
X44060Y-29757D01*
X44088Y-29701D01*
X44116Y-29673D01*
X44172Y-29645D01*
X44285Y-29645D01*
X44341Y-29673D01*
X45410Y-30039D02*
X45213Y-29757D01*
X45072Y-30039D02*
X45072Y-29448D01*
X45297Y-29448D01*
X45353Y-29476D01*
X45381Y-29504D01*
X45410Y-29560D01*
X45410Y-29645D01*
X45381Y-29701D01*
X45353Y-29729D01*
X45297Y-29757D01*
X45072Y-29757D01*
X45888Y-30010D02*
X45831Y-30039D01*
X45719Y-30039D01*
X45663Y-30010D01*
X45634Y-29954D01*
X45634Y-29729D01*
X45663Y-29673D01*
X45719Y-29645D01*
X45831Y-29645D01*
X45888Y-29673D01*
X45916Y-29729D01*
X45916Y-29785D01*
X45634Y-29842D01*
X46253Y-30039D02*
X46197Y-30010D01*
X46169Y-29954D01*
X46169Y-29448D01*
X46731Y-30039D02*
X46731Y-29729D01*
X46703Y-29673D01*
X46647Y-29645D01*
X46534Y-29645D01*
X46478Y-29673D01*
X46731Y-30010D02*
X46675Y-30039D01*
X46534Y-30039D01*
X46478Y-30010D01*
X46450Y-29954D01*
X46450Y-29898D01*
X46478Y-29842D01*
X46534Y-29814D01*
X46675Y-29814D01*
X46731Y-29785D01*
X46956Y-29645D02*
X47097Y-30039D01*
X47237Y-29645D02*
X47097Y-30039D01*
X47041Y-30179D01*
X47012Y-30207D01*
X46956Y-30235D01*
X47884Y-30010D02*
X47969Y-30039D01*
X48109Y-30039D01*
X48165Y-30010D01*
X48194Y-29982D01*
X48222Y-29926D01*
X48222Y-29870D01*
X48194Y-29814D01*
X48165Y-29785D01*
X48109Y-29757D01*
X47997Y-29729D01*
X47940Y-29701D01*
X47912Y-29673D01*
X47884Y-29617D01*
X47884Y-29560D01*
X47912Y-29504D01*
X47940Y-29476D01*
X47997Y-29448D01*
X48137Y-29448D01*
X48222Y-29476D01*
X48475Y-30039D02*
X48475Y-29448D01*
X48728Y-30039D02*
X48728Y-29729D01*
X48700Y-29673D01*
X48643Y-29645D01*
X48559Y-29645D01*
X48503Y-29673D01*
X48475Y-29701D01*
X49009Y-30039D02*
X49009Y-29645D01*
X49009Y-29448D02*
X48981Y-29476D01*
X49009Y-29504D01*
X49037Y-29476D01*
X49009Y-29448D01*
X49009Y-29504D01*
X49515Y-30010D02*
X49459Y-30039D01*
X49347Y-30039D01*
X49290Y-30010D01*
X49262Y-29954D01*
X49262Y-29729D01*
X49290Y-29673D01*
X49347Y-29645D01*
X49459Y-29645D01*
X49515Y-29673D01*
X49543Y-29729D01*
X49543Y-29785D01*
X49262Y-29842D01*
X49881Y-30039D02*
X49825Y-30010D01*
X49796Y-29954D01*
X49796Y-29448D01*
X50359Y-30039D02*
X50359Y-29448D01*
X50359Y-30010D02*
X50303Y-30039D01*
X50190Y-30039D01*
X50134Y-30010D01*
X50106Y-29982D01*
X50078Y-29926D01*
X50078Y-29757D01*
X50106Y-29701D01*
X50134Y-29673D01*
X50190Y-29645D01*
X50303Y-29645D01*
X50359Y-29673D01*
G54D12*
X37042Y-37142D02*
X37042Y-36742D01*
X37642Y-37142D01*
X37642Y-36742D01*
X37642Y-36514D02*
X37042Y-36514D01*
X37642Y-36228D02*
X37042Y-36228D01*
X37042Y-35999D01*
X37071Y-35942D01*
X37100Y-35914D01*
X37157Y-35885D01*
X37242Y-35885D01*
X37300Y-35914D01*
X37328Y-35942D01*
X37357Y-35999D01*
X37357Y-36228D01*
G54D13*
G36*
X41581Y-37468D02*
X41575Y-37491D01*
X41572Y-37498D01*
X41562Y-37511D01*
X41550Y-37522D01*
X41541Y-37526D01*
X41540Y-37527D01*
X41537Y-37527D01*
X41534Y-37528D01*
X41529Y-37528D01*
X41522Y-37529D01*
X41514Y-37529D01*
X41504Y-37529D01*
X41491Y-37530D01*
X41476Y-37530D01*
X41458Y-37530D01*
X41437Y-37531D01*
X41413Y-37531D01*
X41385Y-37531D01*
X41354Y-37531D01*
X41339Y-37531D01*
X41339Y-37349D01*
X41334Y-37340D01*
X41331Y-37334D01*
X41324Y-37321D01*
X41314Y-37303D01*
X41301Y-37281D01*
X41285Y-37253D01*
X41267Y-37221D01*
X41246Y-37184D01*
X41223Y-37144D01*
X41198Y-37100D01*
X41172Y-37053D01*
X41143Y-37003D01*
X41113Y-36951D01*
X41082Y-36896D01*
X41050Y-36839D01*
X41017Y-36780D01*
X40983Y-36720D01*
X40948Y-36660D01*
X40913Y-36598D01*
X40878Y-36536D01*
X40842Y-36475D01*
X40807Y-36413D01*
X40772Y-36352D01*
X40738Y-36291D01*
X40704Y-36232D01*
X40671Y-36174D01*
X40639Y-36118D01*
X40609Y-36064D01*
X40579Y-36013D01*
X40552Y-35964D01*
X40526Y-35919D01*
X40502Y-35876D01*
X40480Y-35838D01*
X40460Y-35803D01*
X40443Y-35773D01*
X40428Y-35748D01*
X40416Y-35727D01*
X40407Y-35712D01*
X40402Y-35702D01*
X40400Y-35698D01*
X40399Y-35701D01*
X40393Y-35710D01*
X40385Y-35725D01*
X40374Y-35745D01*
X40359Y-35770D01*
X40342Y-35799D01*
X40323Y-35833D01*
X40301Y-35871D01*
X40277Y-35913D01*
X40251Y-35959D01*
X40224Y-36007D01*
X40195Y-36058D01*
X40164Y-36111D01*
X40132Y-36167D01*
X40099Y-36225D01*
X40066Y-36284D01*
X40031Y-36344D01*
X39996Y-36406D01*
X39961Y-36468D01*
X39926Y-36529D01*
X39890Y-36591D01*
X39855Y-36653D01*
X39820Y-36714D01*
X39786Y-36774D01*
X39753Y-36833D01*
X39720Y-36890D01*
X39689Y-36945D01*
X39659Y-36998D01*
X39630Y-37049D01*
X39603Y-37096D01*
X39578Y-37141D01*
X39554Y-37182D01*
X39533Y-37219D01*
X39515Y-37252D01*
X39499Y-37280D01*
X39485Y-37304D01*
X39475Y-37323D01*
X39467Y-37336D01*
X39463Y-37344D01*
X39462Y-37345D01*
X39465Y-37346D01*
X39476Y-37346D01*
X39493Y-37346D01*
X39517Y-37346D01*
X39547Y-37347D01*
X39584Y-37347D01*
X39627Y-37347D01*
X39675Y-37348D01*
X39729Y-37348D01*
X39789Y-37348D01*
X39854Y-37348D01*
X39924Y-37348D01*
X39999Y-37348D01*
X40078Y-37348D01*
X40162Y-37349D01*
X40251Y-37349D01*
X40343Y-37349D01*
X40400Y-37349D01*
X41339Y-37349D01*
X41339Y-37531D01*
X41319Y-37531D01*
X41280Y-37531D01*
X41236Y-37532D01*
X41187Y-37532D01*
X41134Y-37532D01*
X41076Y-37532D01*
X41012Y-37532D01*
X40943Y-37532D01*
X40868Y-37532D01*
X40787Y-37532D01*
X40699Y-37532D01*
X40606Y-37532D01*
X40505Y-37532D01*
X40400Y-37532D01*
X40292Y-37532D01*
X40192Y-37532D01*
X40098Y-37532D01*
X40010Y-37532D01*
X39929Y-37532D01*
X39854Y-37532D01*
X39785Y-37532D01*
X39721Y-37532D01*
X39663Y-37531D01*
X39609Y-37531D01*
X39561Y-37531D01*
X39517Y-37531D01*
X39478Y-37531D01*
X39443Y-37531D01*
X39411Y-37531D01*
X39384Y-37531D01*
X39360Y-37530D01*
X39339Y-37530D01*
X39321Y-37530D01*
X39306Y-37529D01*
X39294Y-37529D01*
X39283Y-37529D01*
X39275Y-37528D01*
X39269Y-37528D01*
X39264Y-37527D01*
X39261Y-37527D01*
X39259Y-37526D01*
X39258Y-37526D01*
X39240Y-37513D01*
X39227Y-37495D01*
X39220Y-37475D01*
X39219Y-37453D01*
X39221Y-37447D01*
X39223Y-37442D01*
X39228Y-37432D01*
X39237Y-37416D01*
X39249Y-37395D01*
X39263Y-37369D01*
X39281Y-37338D01*
X39301Y-37302D01*
X39324Y-37263D01*
X39349Y-37219D01*
X39376Y-37172D01*
X39405Y-37121D01*
X39435Y-37067D01*
X39468Y-37011D01*
X39501Y-36952D01*
X39536Y-36891D01*
X39572Y-36829D01*
X39609Y-36764D01*
X39647Y-36699D01*
X39686Y-36632D01*
X39724Y-36565D01*
X39763Y-36498D01*
X39802Y-36430D01*
X39841Y-36362D01*
X39880Y-36295D01*
X39919Y-36228D01*
X39957Y-36163D01*
X39994Y-36099D01*
X40030Y-36036D01*
X40065Y-35975D01*
X40099Y-35917D01*
X40131Y-35861D01*
X40162Y-35808D01*
X40191Y-35757D01*
X40218Y-35711D01*
X40243Y-35668D01*
X40266Y-35628D01*
X40287Y-35593D01*
X40305Y-35563D01*
X40320Y-35537D01*
X40332Y-35517D01*
X40341Y-35502D01*
X40347Y-35492D01*
X40349Y-35489D01*
X40366Y-35476D01*
X40386Y-35469D01*
X40400Y-35468D01*
X40422Y-35471D01*
X40441Y-35480D01*
X40451Y-35489D01*
X40454Y-35493D01*
X40460Y-35503D01*
X40469Y-35519D01*
X40482Y-35540D01*
X40497Y-35566D01*
X40516Y-35597D01*
X40536Y-35633D01*
X40559Y-35673D01*
X40585Y-35716D01*
X40612Y-35763D01*
X40641Y-35814D01*
X40673Y-35867D01*
X40705Y-35924D01*
X40739Y-35983D01*
X40774Y-36043D01*
X40811Y-36106D01*
X40848Y-36171D01*
X40886Y-36236D01*
X40924Y-36303D01*
X40963Y-36370D01*
X41002Y-36438D01*
X41041Y-36505D01*
X41080Y-36573D01*
X41119Y-36640D01*
X41157Y-36707D01*
X41195Y-36772D01*
X41232Y-36836D01*
X41268Y-36899D01*
X41303Y-36960D01*
X41336Y-37018D01*
X41368Y-37074D01*
X41399Y-37127D01*
X41428Y-37178D01*
X41454Y-37224D01*
X41479Y-37267D01*
X41501Y-37307D01*
X41521Y-37342D01*
X41538Y-37372D01*
X41553Y-37398D01*
X41564Y-37418D01*
X41573Y-37434D01*
X41578Y-37443D01*
X41579Y-37447D01*
X41581Y-37468D01*
X41581Y-37468D01*
X41581Y-37468D01*
G37*
G36*
X40618Y-36529D02*
X40617Y-36534D01*
X40615Y-36544D01*
X40611Y-36560D01*
X40605Y-36582D01*
X40598Y-36608D01*
X40590Y-36639D01*
X40581Y-36673D01*
X40571Y-36711D01*
X40561Y-36751D01*
X40549Y-36793D01*
X40547Y-36800D01*
X40476Y-37066D01*
X40502Y-37067D01*
X40515Y-37068D01*
X40525Y-37070D01*
X40529Y-37071D01*
X40529Y-37072D01*
X40527Y-37075D01*
X40522Y-37084D01*
X40513Y-37097D01*
X40503Y-37113D01*
X40490Y-37132D01*
X40477Y-37153D01*
X40462Y-37175D01*
X40448Y-37197D01*
X40434Y-37218D01*
X40421Y-37238D01*
X40409Y-37255D01*
X40400Y-37270D01*
X40393Y-37280D01*
X40390Y-37285D01*
X40389Y-37285D01*
X40386Y-37285D01*
X40383Y-37279D01*
X40382Y-37278D01*
X40379Y-37269D01*
X40374Y-37256D01*
X40368Y-37238D01*
X40361Y-37218D01*
X40353Y-37195D01*
X40345Y-37172D01*
X40337Y-37149D01*
X40330Y-37127D01*
X40323Y-37106D01*
X40317Y-37089D01*
X40313Y-37077D01*
X40311Y-37069D01*
X40311Y-37068D01*
X40314Y-37066D01*
X40323Y-37065D01*
X40335Y-37064D01*
X40339Y-37064D01*
X40367Y-37064D01*
X40410Y-36909D01*
X40419Y-36876D01*
X40428Y-36846D01*
X40436Y-36819D01*
X40443Y-36794D01*
X40448Y-36775D01*
X40453Y-36760D01*
X40455Y-36750D01*
X40456Y-36747D01*
X40454Y-36746D01*
X40448Y-36748D01*
X40437Y-36751D01*
X40421Y-36757D01*
X40400Y-36766D01*
X40372Y-36777D01*
X40338Y-36790D01*
X40323Y-36797D01*
X40293Y-36809D01*
X40265Y-36820D01*
X40241Y-36830D01*
X40219Y-36838D01*
X40202Y-36844D01*
X40190Y-36849D01*
X40184Y-36851D01*
X40183Y-36851D01*
X40183Y-36848D01*
X40185Y-36838D01*
X40189Y-36821D01*
X40195Y-36800D01*
X40202Y-36773D01*
X40211Y-36741D01*
X40221Y-36704D01*
X40232Y-36664D01*
X40244Y-36620D01*
X40257Y-36573D01*
X40271Y-36523D01*
X40273Y-36518D01*
X40366Y-36186D01*
X40451Y-36185D01*
X40536Y-36184D01*
X40525Y-36208D01*
X40522Y-36216D01*
X40516Y-36229D01*
X40508Y-36248D01*
X40498Y-36272D01*
X40486Y-36299D01*
X40472Y-36330D01*
X40458Y-36363D01*
X40442Y-36399D01*
X40427Y-36434D01*
X40411Y-36470D01*
X40398Y-36503D01*
X40384Y-36534D01*
X40372Y-36562D01*
X40362Y-36586D01*
X40353Y-36606D01*
X40347Y-36622D01*
X40343Y-36632D01*
X40341Y-36636D01*
X40345Y-36635D01*
X40354Y-36631D01*
X40369Y-36625D01*
X40388Y-36618D01*
X40410Y-36609D01*
X40436Y-36598D01*
X40465Y-36587D01*
X40479Y-36581D01*
X40514Y-36567D01*
X40544Y-36555D01*
X40570Y-36545D01*
X40591Y-36537D01*
X40606Y-36532D01*
X40615Y-36530D01*
X40618Y-36529D01*
X40618Y-36529D01*
X40618Y-36529D01*
G37*
G54D14*
X42542Y-41000D02*
X42542Y-31000D01*
X42900Y-30607D02*
X47286Y-30607D01*
X49175Y-41393D02*
X42900Y-41393D01*
X49470Y-41118D02*
X49470Y-40881D01*
X47582Y-32497D02*
X47582Y-30882D01*
X49766Y-40606D02*
X55002Y-40606D01*
X47877Y-32772D02*
X54962Y-32772D01*
X55258Y-40330D02*
X55258Y-33048D01*
X42542Y-40999D02*
G75*
G03X42899Y-41392I400J4D01*
G74*
G01*
X42900Y-30606D02*
G75*
G03X42541Y-30999I-31J-331D01*
G74*
G01*
X49174Y-41392D02*
G75*
G03X49470Y-41117I13J281D01*
G74*
G01*
X49766Y-40605D02*
G75*
G03X49470Y-40880I6J-304D01*
G74*
G01*
X55002Y-40605D02*
G75*
G03X55258Y-40329I-56J308D01*
G74*
G01*
X55257Y-33046D02*
G75*
G03X54961Y-32771I-302J-29D01*
G74*
G01*
X47581Y-32497D02*
G75*
G03X47877Y-32772I302J29D01*
G74*
G01*
X47581Y-30881D02*
G75*
G03X47285Y-30606I-302J-29D01*
G74*
G01*
G54D15*
X58400Y-42500D02*
X58400Y-43500D01*
X58400Y-43500D02*
X55400Y-43500D01*
X55400Y-43500D02*
X55400Y-42500D01*
X55400Y-42500D02*
X58400Y-42500D01*
X57400Y-43500D02*
X57400Y-42500D01*
G54D14*
X61260Y-39500D02*
G75*
G03X61260Y-39500I-860J0D01*
G74*
G01*
G54D15*
X59400Y-31000D02*
X59400Y-30000D01*
X59400Y-30000D02*
X61400Y-30000D01*
X61400Y-30000D02*
X61400Y-31000D01*
X61400Y-31000D02*
X59400Y-31000D01*
G54D12*
X56400Y-36500D02*
X56400Y-36200D01*
X56400Y-36200D02*
X56800Y-36200D01*
X56800Y-36200D02*
X56800Y-33800D01*
X56800Y-33800D02*
X56400Y-33800D01*
X56400Y-33800D02*
X56400Y-33500D01*
X56400Y-33800D02*
X56000Y-33800D01*
X56000Y-33800D02*
X56000Y-36200D01*
X56000Y-36200D02*
X56400Y-36200D01*
X56800Y-36000D02*
X56000Y-36000D01*
X56000Y-35900D02*
X56800Y-35900D01*
X56900Y-41000D02*
X58400Y-39500D01*
X58400Y-39500D02*
X58400Y-39000D01*
X58400Y-39000D02*
X57900Y-38500D01*
X57900Y-38500D02*
X56900Y-38500D01*
X56900Y-38500D02*
X55900Y-39500D01*
X55900Y-39500D02*
X55900Y-40500D01*
X55900Y-40500D02*
X56400Y-41000D01*
X56400Y-41000D02*
X56900Y-41000D01*
G54D14*
X58020Y-31250D02*
X58020Y-29750D01*
G54D16*
X57707Y-30500D02*
G75*
G03X57707Y-30500I-707J0D01*
G74*
G01*
G54D17*
X57999Y-29749D02*
G75*
G03X57999Y-31250I-999J-750D01*
G74*
G01*
G54D15*
X57000Y-30050D02*
G75*
G03X56550Y-30500I0J-450D01*
G74*
G01*
X57000Y-30950D02*
G75*
G03X57450Y-30500I0J450D01*
G74*
G01*
X57000Y-29850D02*
G75*
G03X56350Y-30500I0J-650D01*
G74*
G01*
X57000Y-31150D02*
G75*
G03X57650Y-30500I0J650D01*
G74*
G01*
X57000Y-29650D02*
G75*
G03X56150Y-30500I0J-850D01*
G74*
G01*
X57000Y-31350D02*
G75*
G03X57850Y-30500I0J850D01*
G74*
G01*
X40900Y-44000D02*
X39900Y-44000D01*
X39900Y-44000D02*
X39900Y-42000D01*
X39900Y-42000D02*
X40900Y-42000D01*
X40900Y-42000D02*
X40900Y-44000D01*
X59400Y-43500D02*
X59400Y-42500D01*
X59400Y-42500D02*
X61400Y-42500D01*
X61400Y-42500D02*
X61400Y-43500D01*
X61400Y-43500D02*
X59400Y-43500D01*
G54D10*
X68900Y-43500D02*
X71400Y-43500D01*
X63400Y-43500D02*
X65900Y-43500D01*
X68900Y-42000D02*
X65900Y-42000D01*
X65900Y-42000D02*
X65900Y-44000D01*
X65900Y-44000D02*
X68900Y-44000D01*
X68900Y-44000D02*
X68900Y-42000D01*
X71400Y-30500D02*
X70400Y-29500D01*
X70400Y-29500D02*
X64400Y-29500D01*
X64400Y-29500D02*
X63400Y-30500D01*
X71400Y-43500D02*
X71400Y-30500D01*
X63400Y-43500D02*
X63400Y-30500D01*
G54D14*
X60400Y-33500D02*
X60400Y-33700D01*
X60400Y-36500D02*
X60400Y-36300D01*
X60400Y-36300D02*
X60800Y-36300D01*
X60800Y-36300D02*
X60800Y-33700D01*
X60800Y-33700D02*
X60000Y-33700D01*
X60000Y-33700D02*
X60000Y-36300D01*
X60000Y-36300D02*
X60400Y-36300D01*
X60600Y-33700D02*
X60800Y-33900D01*
X61400Y-33500D02*
X61400Y-33700D01*
X61400Y-36500D02*
X61400Y-36300D01*
X61400Y-36300D02*
X61800Y-36300D01*
X61800Y-36300D02*
X61800Y-33700D01*
X61800Y-33700D02*
X61000Y-33700D01*
X61000Y-33700D02*
X61000Y-36300D01*
X61000Y-36300D02*
X61400Y-36300D01*
X61600Y-33700D02*
X61800Y-33900D01*
X59400Y-33500D02*
X59400Y-33700D01*
X59400Y-36500D02*
X59400Y-36300D01*
X59400Y-36300D02*
X59800Y-36300D01*
X59800Y-36300D02*
X59800Y-33700D01*
X59800Y-33700D02*
X59000Y-33700D01*
X59000Y-33700D02*
X59000Y-36300D01*
X59000Y-36300D02*
X59400Y-36300D01*
X59600Y-33700D02*
X59800Y-33900D01*
X58400Y-33500D02*
X58400Y-33700D01*
X58400Y-36500D02*
X58400Y-36300D01*
X58400Y-36300D02*
X58800Y-36300D01*
X58800Y-36300D02*
X58800Y-33700D01*
X58800Y-33700D02*
X58000Y-33700D01*
X58000Y-33700D02*
X58000Y-36300D01*
X58000Y-36300D02*
X58400Y-36300D01*
X58600Y-33700D02*
X58800Y-33900D01*
X57400Y-33500D02*
X57400Y-33700D01*
X57400Y-36500D02*
X57400Y-36300D01*
X57400Y-36300D02*
X57800Y-36300D01*
X57800Y-36300D02*
X57800Y-33700D01*
X57800Y-33700D02*
X57000Y-33700D01*
X57000Y-33700D02*
X57000Y-36300D01*
X57000Y-36300D02*
X57400Y-36300D01*
X57600Y-33700D02*
X57800Y-33900D01*
X50238Y-41161D02*
X50104Y-40971D01*
X50009Y-41161D02*
X50009Y-40761D01*
X50161Y-40761D01*
X50200Y-40780D01*
X50219Y-40800D01*
X50238Y-40838D01*
X50238Y-40895D01*
X50219Y-40933D01*
X50200Y-40952D01*
X50161Y-40971D01*
X50009Y-40971D01*
X50409Y-40952D02*
X50542Y-40952D01*
X50600Y-41161D02*
X50409Y-41161D01*
X50409Y-40761D01*
X50600Y-40761D01*
X50961Y-41161D02*
X50771Y-41161D01*
X50771Y-40761D01*
X51076Y-41047D02*
X51266Y-41047D01*
X51038Y-41161D02*
X51171Y-40761D01*
X51304Y-41161D01*
X51514Y-40971D02*
X51514Y-41161D01*
X51380Y-40761D02*
X51514Y-40971D01*
X51647Y-40761D01*
X51780Y-41009D02*
X52085Y-41009D01*
X52390Y-40761D02*
X52390Y-41047D01*
X52371Y-41104D01*
X52333Y-41142D01*
X52276Y-41161D01*
X52238Y-41161D01*
X52847Y-41200D02*
X52809Y-41180D01*
X52771Y-41142D01*
X52714Y-41085D01*
X52676Y-41066D01*
X52638Y-41066D01*
X52657Y-41161D02*
X52619Y-41142D01*
X52580Y-41104D01*
X52561Y-41028D01*
X52561Y-40895D01*
X52580Y-40819D01*
X52619Y-40780D01*
X52657Y-40761D01*
X52733Y-40761D01*
X52771Y-40780D01*
X52809Y-40819D01*
X52828Y-40895D01*
X52828Y-41028D01*
X52809Y-41104D01*
X52771Y-41142D01*
X52733Y-41161D01*
X52657Y-41161D01*
X52961Y-40761D02*
X53228Y-41161D01*
X53228Y-40761D02*
X52961Y-41161D01*
X53380Y-41009D02*
X53685Y-41009D01*
X54085Y-41161D02*
X53857Y-41161D01*
X53971Y-41161D02*
X53971Y-40761D01*
X53933Y-40819D01*
X53895Y-40857D01*
X53857Y-40876D01*
X54447Y-40761D02*
X54257Y-40761D01*
X54238Y-40952D01*
X54257Y-40933D01*
X54295Y-40914D01*
X54390Y-40914D01*
X54428Y-40933D01*
X54447Y-40952D01*
X54466Y-40990D01*
X54466Y-41085D01*
X54447Y-41123D01*
X54428Y-41142D01*
X54390Y-41161D01*
X54295Y-41161D01*
X54257Y-41142D01*
X54238Y-41123D01*
X54771Y-40952D02*
X54638Y-40952D01*
X54638Y-41161D02*
X54638Y-40761D01*
X54828Y-40761D01*
X56538Y-43911D02*
X56309Y-43911D01*
X56423Y-43911D02*
X56423Y-43511D01*
X56385Y-43569D01*
X56347Y-43607D01*
X56309Y-43626D01*
X56728Y-43911D02*
X56804Y-43911D01*
X56842Y-43892D01*
X56861Y-43873D01*
X56900Y-43816D01*
X56919Y-43740D01*
X56919Y-43588D01*
X56900Y-43550D01*
X56880Y-43530D01*
X56842Y-43511D01*
X56766Y-43511D01*
X56728Y-43530D01*
X56709Y-43550D01*
X56690Y-43588D01*
X56690Y-43683D01*
X56709Y-43721D01*
X56728Y-43740D01*
X56766Y-43759D01*
X56842Y-43759D01*
X56880Y-43740D01*
X56900Y-43721D01*
X56919Y-43683D01*
X57090Y-43873D02*
X57109Y-43892D01*
X57090Y-43911D01*
X57071Y-43892D01*
X57090Y-43873D01*
X57090Y-43911D01*
X57490Y-43911D02*
X57261Y-43911D01*
X57376Y-43911D02*
X57376Y-43511D01*
X57338Y-43569D01*
X57300Y-43607D01*
X57261Y-43626D01*
X59971Y-41661D02*
X59742Y-41661D01*
X59857Y-41661D02*
X59857Y-41261D01*
X59819Y-41319D01*
X59780Y-41357D01*
X59742Y-41376D01*
X60219Y-41261D02*
X60257Y-41261D01*
X60295Y-41280D01*
X60314Y-41300D01*
X60333Y-41338D01*
X60352Y-41414D01*
X60352Y-41509D01*
X60333Y-41585D01*
X60314Y-41623D01*
X60295Y-41642D01*
X60257Y-41661D01*
X60219Y-41661D01*
X60180Y-41642D01*
X60161Y-41623D01*
X60142Y-41585D01*
X60123Y-41509D01*
X60123Y-41414D01*
X60142Y-41338D01*
X60161Y-41300D01*
X60180Y-41280D01*
X60219Y-41261D01*
X60695Y-41395D02*
X60695Y-41661D01*
X60523Y-41395D02*
X60523Y-41604D01*
X60542Y-41642D01*
X60580Y-41661D01*
X60638Y-41661D01*
X60676Y-41642D01*
X60695Y-41623D01*
X61019Y-41452D02*
X60885Y-41452D01*
X60885Y-41661D02*
X60885Y-41261D01*
X61076Y-41261D01*
X60747Y-40009D02*
X61052Y-40009D01*
X60900Y-40161D02*
X60900Y-39857D01*
X58557Y-30642D02*
X58614Y-30661D01*
X58709Y-30661D01*
X58747Y-30642D01*
X58766Y-30623D01*
X58785Y-30585D01*
X58785Y-30547D01*
X58766Y-30509D01*
X58747Y-30490D01*
X58709Y-30471D01*
X58633Y-30452D01*
X58595Y-30433D01*
X58576Y-30414D01*
X58557Y-30376D01*
X58557Y-30338D01*
X58576Y-30300D01*
X58595Y-30280D01*
X58633Y-30261D01*
X58728Y-30261D01*
X58785Y-30280D01*
X58919Y-30261D02*
X59014Y-30661D01*
X59090Y-30376D01*
X59166Y-30661D01*
X59261Y-30261D01*
G54D18*
X56561Y-35600D02*
X56561Y-35800D01*
X56561Y-35700D02*
X56161Y-35700D01*
X56219Y-35733D01*
X56257Y-35766D01*
X56276Y-35800D01*
X56561Y-35450D02*
X56161Y-35450D01*
X56561Y-35250D01*
X56161Y-35250D01*
X56295Y-34933D02*
X56561Y-34933D01*
X56142Y-35016D02*
X56428Y-35100D01*
X56428Y-34883D01*
X56561Y-34566D02*
X56561Y-34766D01*
X56561Y-34666D02*
X56161Y-34666D01*
X56219Y-34700D01*
X56257Y-34733D01*
X56276Y-34766D01*
X56295Y-34266D02*
X56561Y-34266D01*
X56142Y-34350D02*
X56428Y-34433D01*
X56428Y-34216D01*
X56333Y-34033D02*
X56314Y-34066D01*
X56295Y-34083D01*
X56257Y-34100D01*
X56238Y-34100D01*
X56200Y-34083D01*
X56180Y-34066D01*
X56161Y-34033D01*
X56161Y-33966D01*
X56180Y-33933D01*
X56200Y-33916D01*
X56238Y-33900D01*
X56257Y-33900D01*
X56295Y-33916D01*
X56314Y-33933D01*
X56333Y-33966D01*
X56333Y-34033D01*
X56352Y-34066D01*
X56371Y-34083D01*
X56409Y-34100D01*
X56485Y-34100D01*
X56523Y-34083D01*
X56542Y-34066D01*
X56561Y-34033D01*
X56561Y-33966D01*
X56542Y-33933D01*
X56523Y-33916D01*
X56485Y-33900D01*
X56409Y-33900D01*
X56371Y-33916D01*
X56352Y-33933D01*
X56333Y-33966D01*
G54D14*
X56314Y-41300D02*
X56333Y-41280D01*
X56371Y-41261D01*
X56466Y-41261D01*
X56504Y-41280D01*
X56523Y-41300D01*
X56542Y-41338D01*
X56542Y-41376D01*
X56523Y-41433D01*
X56295Y-41661D01*
X56542Y-41661D01*
X56714Y-41661D02*
X56714Y-41261D01*
X56942Y-41661D01*
X56942Y-41261D01*
X57095Y-41261D02*
X57342Y-41261D01*
X57209Y-41414D01*
X57266Y-41414D01*
X57304Y-41433D01*
X57323Y-41452D01*
X57342Y-41490D01*
X57342Y-41585D01*
X57323Y-41623D01*
X57304Y-41642D01*
X57266Y-41661D01*
X57152Y-41661D01*
X57114Y-41642D01*
X57095Y-41623D01*
X57533Y-41661D02*
X57609Y-41661D01*
X57647Y-41642D01*
X57666Y-41623D01*
X57704Y-41566D01*
X57723Y-41490D01*
X57723Y-41338D01*
X57704Y-41300D01*
X57685Y-41280D01*
X57647Y-41261D01*
X57571Y-41261D01*
X57533Y-41280D01*
X57514Y-41300D01*
X57495Y-41338D01*
X57495Y-41433D01*
X57514Y-41471D01*
X57533Y-41490D01*
X57571Y-41509D01*
X57647Y-41509D01*
X57685Y-41490D01*
X57704Y-41471D01*
X57723Y-41433D01*
X57971Y-41261D02*
X58009Y-41261D01*
X58047Y-41280D01*
X58066Y-41300D01*
X58085Y-41338D01*
X58104Y-41414D01*
X58104Y-41509D01*
X58085Y-41585D01*
X58066Y-41623D01*
X58047Y-41642D01*
X58009Y-41661D01*
X57971Y-41661D01*
X57933Y-41642D01*
X57914Y-41623D01*
X57895Y-41585D01*
X57876Y-41509D01*
X57876Y-41414D01*
X57895Y-41338D01*
X57914Y-41300D01*
X57933Y-41280D01*
X57971Y-41261D01*
X58447Y-41395D02*
X58447Y-41661D01*
X58352Y-41242D02*
X58257Y-41528D01*
X58504Y-41528D01*
X54642Y-30661D02*
X54452Y-30661D01*
X54452Y-30261D01*
X54776Y-30452D02*
X54909Y-30452D01*
X54966Y-30661D02*
X54776Y-30661D01*
X54776Y-30261D01*
X54966Y-30261D01*
X55138Y-30661D02*
X55138Y-30261D01*
X55233Y-30261D01*
X55290Y-30280D01*
X55328Y-30319D01*
X55347Y-30357D01*
X55366Y-30433D01*
X55366Y-30490D01*
X55347Y-30566D01*
X55328Y-30604D01*
X55290Y-30642D01*
X55233Y-30661D01*
X55138Y-30661D01*
X39773Y-43028D02*
X39792Y-43047D01*
X39811Y-43104D01*
X39811Y-43142D01*
X39792Y-43199D01*
X39754Y-43238D01*
X39716Y-43257D01*
X39640Y-43276D01*
X39583Y-43276D01*
X39507Y-43257D01*
X39469Y-43238D01*
X39430Y-43199D01*
X39411Y-43142D01*
X39411Y-43104D01*
X39430Y-43047D01*
X39450Y-43028D01*
X39411Y-42914D02*
X39411Y-42685D01*
X39811Y-42799D02*
X39411Y-42799D01*
X59866Y-43961D02*
X59866Y-43561D01*
X60019Y-43561D01*
X60057Y-43580D01*
X60076Y-43600D01*
X60095Y-43638D01*
X60095Y-43695D01*
X60076Y-43733D01*
X60057Y-43752D01*
X60019Y-43771D01*
X59866Y-43771D01*
X60228Y-43561D02*
X60323Y-43961D01*
X60400Y-43676D01*
X60476Y-43961D01*
X60571Y-43561D01*
X60952Y-43961D02*
X60819Y-43771D01*
X60723Y-43961D02*
X60723Y-43561D01*
X60876Y-43561D01*
X60914Y-43580D01*
X60933Y-43600D01*
X60952Y-43638D01*
X60952Y-43695D01*
X60933Y-43733D01*
X60914Y-43752D01*
X60876Y-43771D01*
X60723Y-43771D01*
X65571Y-37142D02*
X65628Y-37161D01*
X65723Y-37161D01*
X65761Y-37142D01*
X65780Y-37123D01*
X65800Y-37085D01*
X65800Y-37047D01*
X65780Y-37009D01*
X65761Y-36990D01*
X65723Y-36971D01*
X65647Y-36952D01*
X65609Y-36933D01*
X65590Y-36914D01*
X65571Y-36876D01*
X65571Y-36838D01*
X65590Y-36800D01*
X65609Y-36780D01*
X65647Y-36761D01*
X65742Y-36761D01*
X65800Y-36780D01*
X65971Y-37161D02*
X65971Y-36761D01*
X66123Y-36761D01*
X66161Y-36780D01*
X66180Y-36800D01*
X66200Y-36838D01*
X66200Y-36895D01*
X66180Y-36933D01*
X66161Y-36952D01*
X66123Y-36971D01*
X65971Y-36971D01*
X66352Y-37047D02*
X66542Y-37047D01*
X66314Y-37161D02*
X66447Y-36761D01*
X66580Y-37161D01*
X66942Y-37161D02*
X66809Y-36971D01*
X66714Y-37161D02*
X66714Y-36761D01*
X66866Y-36761D01*
X66904Y-36780D01*
X66923Y-36800D01*
X66942Y-36838D01*
X66942Y-36895D01*
X66923Y-36933D01*
X66904Y-36952D01*
X66866Y-36971D01*
X66714Y-36971D01*
X67114Y-37161D02*
X67114Y-36761D01*
X67342Y-37161D02*
X67171Y-36933D01*
X67342Y-36761D02*
X67114Y-36990D01*
X67419Y-37200D02*
X67723Y-37200D01*
X68047Y-37123D02*
X68028Y-37142D01*
X67971Y-37161D01*
X67933Y-37161D01*
X67876Y-37142D01*
X67838Y-37104D01*
X67819Y-37066D01*
X67800Y-36990D01*
X67800Y-36933D01*
X67819Y-36857D01*
X67838Y-36819D01*
X67876Y-36780D01*
X67933Y-36761D01*
X67971Y-36761D01*
X68028Y-36780D01*
X68047Y-36800D01*
X68295Y-36761D02*
X68371Y-36761D01*
X68409Y-36780D01*
X68447Y-36819D01*
X68466Y-36895D01*
X68466Y-37028D01*
X68447Y-37104D01*
X68409Y-37142D01*
X68371Y-37161D01*
X68295Y-37161D01*
X68257Y-37142D01*
X68219Y-37104D01*
X68200Y-37028D01*
X68200Y-36895D01*
X68219Y-36819D01*
X68257Y-36780D01*
X68295Y-36761D01*
X68866Y-37161D02*
X68733Y-36971D01*
X68638Y-37161D02*
X68638Y-36761D01*
X68790Y-36761D01*
X68828Y-36780D01*
X68847Y-36800D01*
X68866Y-36838D01*
X68866Y-36895D01*
X68847Y-36933D01*
X68828Y-36952D01*
X68790Y-36971D01*
X68638Y-36971D01*
X69038Y-36952D02*
X69171Y-36952D01*
X69228Y-37161D02*
X69038Y-37161D01*
X69038Y-36761D01*
X69228Y-36761D01*
X62104Y-31161D02*
X62104Y-30761D01*
X62200Y-30761D01*
X62257Y-30780D01*
X62295Y-30819D01*
X62314Y-30857D01*
X62333Y-30933D01*
X62333Y-30990D01*
X62314Y-31066D01*
X62295Y-31104D01*
X62257Y-31142D01*
X62200Y-31161D01*
X62104Y-31161D01*
X62580Y-30761D02*
X62619Y-30761D01*
X62657Y-30780D01*
X62676Y-30800D01*
X62695Y-30838D01*
X62714Y-30914D01*
X62714Y-31009D01*
X62695Y-31085D01*
X62676Y-31123D01*
X62657Y-31142D01*
X62619Y-31161D01*
X62580Y-31161D01*
X62542Y-31142D01*
X62523Y-31123D01*
X62504Y-31085D01*
X62485Y-31009D01*
X62485Y-30914D01*
X62504Y-30838D01*
X62523Y-30800D01*
X62542Y-30780D01*
X62580Y-30761D01*
X62104Y-32161D02*
X62104Y-31761D01*
X62200Y-31761D01*
X62257Y-31780D01*
X62295Y-31819D01*
X62314Y-31857D01*
X62333Y-31933D01*
X62333Y-31990D01*
X62314Y-32066D01*
X62295Y-32104D01*
X62257Y-32142D01*
X62200Y-32161D01*
X62104Y-32161D01*
X62714Y-32161D02*
X62485Y-32161D01*
X62600Y-32161D02*
X62600Y-31761D01*
X62561Y-31819D01*
X62523Y-31857D01*
X62485Y-31876D01*
X62104Y-33161D02*
X62104Y-32761D01*
X62200Y-32761D01*
X62257Y-32780D01*
X62295Y-32819D01*
X62314Y-32857D01*
X62333Y-32933D01*
X62333Y-32990D01*
X62314Y-33066D01*
X62295Y-33104D01*
X62257Y-33142D01*
X62200Y-33161D01*
X62104Y-33161D01*
X62485Y-32800D02*
X62504Y-32780D01*
X62542Y-32761D01*
X62638Y-32761D01*
X62676Y-32780D01*
X62695Y-32800D01*
X62714Y-32838D01*
X62714Y-32876D01*
X62695Y-32933D01*
X62466Y-33161D01*
X62714Y-33161D01*
X62104Y-34161D02*
X62104Y-33761D01*
X62200Y-33761D01*
X62257Y-33780D01*
X62295Y-33819D01*
X62314Y-33857D01*
X62333Y-33933D01*
X62333Y-33990D01*
X62314Y-34066D01*
X62295Y-34104D01*
X62257Y-34142D01*
X62200Y-34161D01*
X62104Y-34161D01*
X62466Y-33761D02*
X62714Y-33761D01*
X62580Y-33914D01*
X62638Y-33914D01*
X62676Y-33933D01*
X62695Y-33952D01*
X62714Y-33990D01*
X62714Y-34085D01*
X62695Y-34123D01*
X62676Y-34142D01*
X62638Y-34161D01*
X62523Y-34161D01*
X62485Y-34142D01*
X62466Y-34123D01*
X62104Y-35161D02*
X62104Y-34761D01*
X62200Y-34761D01*
X62257Y-34780D01*
X62295Y-34819D01*
X62314Y-34857D01*
X62333Y-34933D01*
X62333Y-34990D01*
X62314Y-35066D01*
X62295Y-35104D01*
X62257Y-35142D01*
X62200Y-35161D01*
X62104Y-35161D01*
X62676Y-34895D02*
X62676Y-35161D01*
X62580Y-34742D02*
X62485Y-35028D01*
X62733Y-35028D01*
X62104Y-36161D02*
X62104Y-35761D01*
X62200Y-35761D01*
X62257Y-35780D01*
X62295Y-35819D01*
X62314Y-35857D01*
X62333Y-35933D01*
X62333Y-35990D01*
X62314Y-36066D01*
X62295Y-36104D01*
X62257Y-36142D01*
X62200Y-36161D01*
X62104Y-36161D01*
X62695Y-35761D02*
X62504Y-35761D01*
X62485Y-35952D01*
X62504Y-35933D01*
X62542Y-35914D01*
X62638Y-35914D01*
X62676Y-35933D01*
X62695Y-35952D01*
X62714Y-35990D01*
X62714Y-36085D01*
X62695Y-36123D01*
X62676Y-36142D01*
X62638Y-36161D01*
X62542Y-36161D01*
X62504Y-36142D01*
X62485Y-36123D01*
X62104Y-37161D02*
X62104Y-36761D01*
X62200Y-36761D01*
X62257Y-36780D01*
X62295Y-36819D01*
X62314Y-36857D01*
X62333Y-36933D01*
X62333Y-36990D01*
X62314Y-37066D01*
X62295Y-37104D01*
X62257Y-37142D01*
X62200Y-37161D01*
X62104Y-37161D01*
X62676Y-36761D02*
X62600Y-36761D01*
X62561Y-36780D01*
X62542Y-36800D01*
X62504Y-36857D01*
X62485Y-36933D01*
X62485Y-37085D01*
X62504Y-37123D01*
X62523Y-37142D01*
X62561Y-37161D01*
X62638Y-37161D01*
X62676Y-37142D01*
X62695Y-37123D01*
X62714Y-37085D01*
X62714Y-36990D01*
X62695Y-36952D01*
X62676Y-36933D01*
X62638Y-36914D01*
X62561Y-36914D01*
X62523Y-36933D01*
X62504Y-36952D01*
X62485Y-36990D01*
X62104Y-38161D02*
X62104Y-37761D01*
X62200Y-37761D01*
X62257Y-37780D01*
X62295Y-37819D01*
X62314Y-37857D01*
X62333Y-37933D01*
X62333Y-37990D01*
X62314Y-38066D01*
X62295Y-38104D01*
X62257Y-38142D01*
X62200Y-38161D01*
X62104Y-38161D01*
X62466Y-37761D02*
X62733Y-37761D01*
X62561Y-38161D01*
X62095Y-38780D02*
X62057Y-38761D01*
X62000Y-38761D01*
X61942Y-38780D01*
X61904Y-38819D01*
X61885Y-38857D01*
X61866Y-38933D01*
X61866Y-38990D01*
X61885Y-39066D01*
X61904Y-39104D01*
X61942Y-39142D01*
X62000Y-39161D01*
X62038Y-39161D01*
X62095Y-39142D01*
X62114Y-39123D01*
X62114Y-38990D01*
X62038Y-38990D01*
X62285Y-39161D02*
X62285Y-38761D01*
X62514Y-39161D01*
X62514Y-38761D01*
X62704Y-39161D02*
X62704Y-38761D01*
X62800Y-38761D01*
X62857Y-38780D01*
X62895Y-38819D01*
X62914Y-38857D01*
X62933Y-38933D01*
X62933Y-38990D01*
X62914Y-39066D01*
X62895Y-39104D01*
X62857Y-39142D01*
X62800Y-39161D01*
X62704Y-39161D01*
X61695Y-39761D02*
X61828Y-40161D01*
X61961Y-39761D01*
X62095Y-40161D02*
X62095Y-39761D01*
X62190Y-39761D01*
X62247Y-39780D01*
X62285Y-39819D01*
X62304Y-39857D01*
X62323Y-39933D01*
X62323Y-39990D01*
X62304Y-40066D01*
X62285Y-40104D01*
X62247Y-40142D01*
X62190Y-40161D01*
X62095Y-40161D01*
X62495Y-40161D02*
X62495Y-39761D01*
X62590Y-39761D01*
X62647Y-39780D01*
X62685Y-39819D01*
X62704Y-39857D01*
X62723Y-39933D01*
X62723Y-39990D01*
X62704Y-40066D01*
X62685Y-40104D01*
X62647Y-40142D01*
X62590Y-40161D01*
X62495Y-40161D01*
X62876Y-40047D02*
X63066Y-40047D01*
X62838Y-40161D02*
X62971Y-39761D01*
X63104Y-40161D01*
X62180Y-41161D02*
X62047Y-40971D01*
X61952Y-41161D02*
X61952Y-40761D01*
X62104Y-40761D01*
X62142Y-40780D01*
X62161Y-40800D01*
X62180Y-40838D01*
X62180Y-40895D01*
X62161Y-40933D01*
X62142Y-40952D01*
X62104Y-40971D01*
X61952Y-40971D01*
X62333Y-41142D02*
X62390Y-41161D01*
X62485Y-41161D01*
X62523Y-41142D01*
X62542Y-41123D01*
X62561Y-41085D01*
X62561Y-41047D01*
X62542Y-41009D01*
X62523Y-40990D01*
X62485Y-40971D01*
X62409Y-40952D01*
X62371Y-40933D01*
X62352Y-40914D01*
X62333Y-40876D01*
X62333Y-40838D01*
X62352Y-40800D01*
X62371Y-40780D01*
X62409Y-40761D01*
X62504Y-40761D01*
X62561Y-40780D01*
X62676Y-40761D02*
X62904Y-40761D01*
X62790Y-41161D02*
X62790Y-40761D01*
X61866Y-41761D02*
X62000Y-42161D01*
X62133Y-41761D01*
X62495Y-42123D02*
X62476Y-42142D01*
X62419Y-42161D01*
X62380Y-42161D01*
X62323Y-42142D01*
X62285Y-42104D01*
X62266Y-42066D01*
X62247Y-41990D01*
X62247Y-41933D01*
X62266Y-41857D01*
X62285Y-41819D01*
X62323Y-41780D01*
X62380Y-41761D01*
X62419Y-41761D01*
X62476Y-41780D01*
X62495Y-41800D01*
X62895Y-42123D02*
X62876Y-42142D01*
X62819Y-42161D01*
X62780Y-42161D01*
X62723Y-42142D01*
X62685Y-42104D01*
X62666Y-42066D01*
X62647Y-41990D01*
X62647Y-41933D01*
X62666Y-41857D01*
X62685Y-41819D01*
X62723Y-41780D01*
X62780Y-41761D01*
X62819Y-41761D01*
X62876Y-41780D01*
X62895Y-41800D01*
X72114Y-31047D02*
X72304Y-31047D01*
X72076Y-31161D02*
X72209Y-30761D01*
X72342Y-31161D01*
X72552Y-30761D02*
X72590Y-30761D01*
X72628Y-30780D01*
X72647Y-30800D01*
X72666Y-30838D01*
X72685Y-30914D01*
X72685Y-31009D01*
X72666Y-31085D01*
X72647Y-31123D01*
X72628Y-31142D01*
X72590Y-31161D01*
X72552Y-31161D01*
X72514Y-31142D01*
X72495Y-31123D01*
X72476Y-31085D01*
X72457Y-31009D01*
X72457Y-30914D01*
X72476Y-30838D01*
X72495Y-30800D01*
X72514Y-30780D01*
X72552Y-30761D01*
X72114Y-32047D02*
X72304Y-32047D01*
X72076Y-32161D02*
X72209Y-31761D01*
X72342Y-32161D01*
X72685Y-32161D02*
X72457Y-32161D01*
X72571Y-32161D02*
X72571Y-31761D01*
X72533Y-31819D01*
X72495Y-31857D01*
X72457Y-31876D01*
X72114Y-33047D02*
X72304Y-33047D01*
X72076Y-33161D02*
X72209Y-32761D01*
X72342Y-33161D01*
X72457Y-32800D02*
X72476Y-32780D01*
X72514Y-32761D01*
X72609Y-32761D01*
X72647Y-32780D01*
X72666Y-32800D01*
X72685Y-32838D01*
X72685Y-32876D01*
X72666Y-32933D01*
X72438Y-33161D01*
X72685Y-33161D01*
X72114Y-34047D02*
X72304Y-34047D01*
X72076Y-34161D02*
X72209Y-33761D01*
X72342Y-34161D01*
X72438Y-33761D02*
X72685Y-33761D01*
X72552Y-33914D01*
X72609Y-33914D01*
X72647Y-33933D01*
X72666Y-33952D01*
X72685Y-33990D01*
X72685Y-34085D01*
X72666Y-34123D01*
X72647Y-34142D01*
X72609Y-34161D01*
X72495Y-34161D01*
X72457Y-34142D01*
X72438Y-34123D01*
X72114Y-35047D02*
X72304Y-35047D01*
X72076Y-35161D02*
X72209Y-34761D01*
X72342Y-35161D01*
X72647Y-34895D02*
X72647Y-35161D01*
X72552Y-34742D02*
X72457Y-35028D01*
X72704Y-35028D01*
X72114Y-36047D02*
X72304Y-36047D01*
X72076Y-36161D02*
X72209Y-35761D01*
X72342Y-36161D01*
X72666Y-35761D02*
X72476Y-35761D01*
X72457Y-35952D01*
X72476Y-35933D01*
X72514Y-35914D01*
X72609Y-35914D01*
X72647Y-35933D01*
X72666Y-35952D01*
X72685Y-35990D01*
X72685Y-36085D01*
X72666Y-36123D01*
X72647Y-36142D01*
X72609Y-36161D01*
X72514Y-36161D01*
X72476Y-36142D01*
X72457Y-36123D01*
X72114Y-37047D02*
X72304Y-37047D01*
X72076Y-37161D02*
X72209Y-36761D01*
X72342Y-37161D01*
X72647Y-36761D02*
X72571Y-36761D01*
X72533Y-36780D01*
X72514Y-36800D01*
X72476Y-36857D01*
X72457Y-36933D01*
X72457Y-37085D01*
X72476Y-37123D01*
X72495Y-37142D01*
X72533Y-37161D01*
X72609Y-37161D01*
X72647Y-37142D01*
X72666Y-37123D01*
X72685Y-37085D01*
X72685Y-36990D01*
X72666Y-36952D01*
X72647Y-36933D01*
X72609Y-36914D01*
X72533Y-36914D01*
X72495Y-36933D01*
X72476Y-36952D01*
X72457Y-36990D01*
X72114Y-38047D02*
X72304Y-38047D01*
X72076Y-38161D02*
X72209Y-37761D01*
X72342Y-38161D01*
X72438Y-37761D02*
X72704Y-37761D01*
X72533Y-38161D01*
X72333Y-39161D02*
X72200Y-38971D01*
X72104Y-39161D02*
X72104Y-38761D01*
X72257Y-38761D01*
X72295Y-38780D01*
X72314Y-38800D01*
X72333Y-38838D01*
X72333Y-38895D01*
X72314Y-38933D01*
X72295Y-38952D01*
X72257Y-38971D01*
X72104Y-38971D01*
X72466Y-38761D02*
X72733Y-39161D01*
X72733Y-38761D02*
X72466Y-39161D01*
X72095Y-39761D02*
X72323Y-39761D01*
X72209Y-40161D02*
X72209Y-39761D01*
X72419Y-39761D02*
X72685Y-40161D01*
X72685Y-39761D02*
X72419Y-40161D01*
X72095Y-40780D02*
X72057Y-40761D01*
X72000Y-40761D01*
X71942Y-40780D01*
X71904Y-40819D01*
X71885Y-40857D01*
X71866Y-40933D01*
X71866Y-40990D01*
X71885Y-41066D01*
X71904Y-41104D01*
X71942Y-41142D01*
X72000Y-41161D01*
X72038Y-41161D01*
X72095Y-41142D01*
X72114Y-41123D01*
X72114Y-40990D01*
X72038Y-40990D01*
X72285Y-41161D02*
X72285Y-40761D01*
X72514Y-41161D01*
X72514Y-40761D01*
X72704Y-41161D02*
X72704Y-40761D01*
X72800Y-40761D01*
X72857Y-40780D01*
X72895Y-40819D01*
X72914Y-40857D01*
X72933Y-40933D01*
X72933Y-40990D01*
X72914Y-41066D01*
X72895Y-41104D01*
X72857Y-41142D01*
X72800Y-41161D01*
X72704Y-41161D01*
X72123Y-42161D02*
X71990Y-41971D01*
X71895Y-42161D02*
X71895Y-41761D01*
X72047Y-41761D01*
X72085Y-41780D01*
X72104Y-41800D01*
X72123Y-41838D01*
X72123Y-41895D01*
X72104Y-41933D01*
X72085Y-41952D01*
X72047Y-41971D01*
X71895Y-41971D01*
X72276Y-42047D02*
X72466Y-42047D01*
X72238Y-42161D02*
X72371Y-41761D01*
X72504Y-42161D01*
X72600Y-41761D02*
X72695Y-42161D01*
X72771Y-41876D01*
X72847Y-42161D01*
X72942Y-41761D01*
X60561Y-35276D02*
X60561Y-35504D01*
X60561Y-35390D02*
X60161Y-35390D01*
X60219Y-35428D01*
X60257Y-35466D01*
X60276Y-35504D01*
X60161Y-35028D02*
X60161Y-34990D01*
X60180Y-34952D01*
X60200Y-34933D01*
X60238Y-34914D01*
X60314Y-34895D01*
X60409Y-34895D01*
X60485Y-34914D01*
X60523Y-34933D01*
X60542Y-34952D01*
X60561Y-34990D01*
X60561Y-35028D01*
X60542Y-35066D01*
X60523Y-35085D01*
X60485Y-35104D01*
X60409Y-35123D01*
X60314Y-35123D01*
X60238Y-35104D01*
X60200Y-35085D01*
X60180Y-35066D01*
X60161Y-35028D01*
X60561Y-34723D02*
X60161Y-34723D01*
X60561Y-34495D02*
X60333Y-34666D01*
X60161Y-34495D02*
X60390Y-34723D01*
X61561Y-35276D02*
X61561Y-35504D01*
X61561Y-35390D02*
X61161Y-35390D01*
X61219Y-35428D01*
X61257Y-35466D01*
X61276Y-35504D01*
X61161Y-35028D02*
X61161Y-34990D01*
X61180Y-34952D01*
X61200Y-34933D01*
X61238Y-34914D01*
X61314Y-34895D01*
X61409Y-34895D01*
X61485Y-34914D01*
X61523Y-34933D01*
X61542Y-34952D01*
X61561Y-34990D01*
X61561Y-35028D01*
X61542Y-35066D01*
X61523Y-35085D01*
X61485Y-35104D01*
X61409Y-35123D01*
X61314Y-35123D01*
X61238Y-35104D01*
X61200Y-35085D01*
X61180Y-35066D01*
X61161Y-35028D01*
X61561Y-34723D02*
X61161Y-34723D01*
X61561Y-34495D02*
X61333Y-34666D01*
X61161Y-34495D02*
X61390Y-34723D01*
X59561Y-35276D02*
X59561Y-35504D01*
X59561Y-35390D02*
X59161Y-35390D01*
X59219Y-35428D01*
X59257Y-35466D01*
X59276Y-35504D01*
X59161Y-35028D02*
X59161Y-34990D01*
X59180Y-34952D01*
X59200Y-34933D01*
X59238Y-34914D01*
X59314Y-34895D01*
X59409Y-34895D01*
X59485Y-34914D01*
X59523Y-34933D01*
X59542Y-34952D01*
X59561Y-34990D01*
X59561Y-35028D01*
X59542Y-35066D01*
X59523Y-35085D01*
X59485Y-35104D01*
X59409Y-35123D01*
X59314Y-35123D01*
X59238Y-35104D01*
X59200Y-35085D01*
X59180Y-35066D01*
X59161Y-35028D01*
X59561Y-34723D02*
X59161Y-34723D01*
X59561Y-34495D02*
X59333Y-34666D01*
X59161Y-34495D02*
X59390Y-34723D01*
X58561Y-35085D02*
X58561Y-35314D01*
X58561Y-35199D02*
X58161Y-35199D01*
X58219Y-35238D01*
X58257Y-35276D01*
X58276Y-35314D01*
X58561Y-34914D02*
X58161Y-34914D01*
X58561Y-34685D02*
X58333Y-34857D01*
X58161Y-34685D02*
X58390Y-34914D01*
X57561Y-35085D02*
X57561Y-35314D01*
X57561Y-35199D02*
X57161Y-35199D01*
X57219Y-35238D01*
X57257Y-35276D01*
X57276Y-35314D01*
X57561Y-34914D02*
X57161Y-34914D01*
X57561Y-34685D02*
X57333Y-34857D01*
X57161Y-34685D02*
X57390Y-34914D01*
M02*
