G04 (created by PCBNEW (2013-07-07 BZR 4022)-stable) date Tue 03 Sep 2013 18:57:52 CST*
%MOIN*%
G04 Gerber Fmt 3.4, Leading zero omitted, Abs format*
%FSLAX34Y34*%
G01*
G70*
G90*
G04 APERTURE LIST*
%ADD10C,0.006*%
%ADD11C,0.02*%
%ADD12C,0.06*%
%ADD13C,0.065*%
%ADD14C,0.121*%
%ADD15C,0.15748*%
%ADD16R,0.06X0.06*%
%ADD17C,0.17*%
%ADD18C,0.3*%
%ADD19C,0.01*%
%ADD20C,0.2*%
G04 APERTURE END LIST*
G54D10*
G54D11*
X64600Y-42000D02*
X64200Y-42000D01*
X64600Y-41000D02*
X64200Y-41000D01*
X64600Y-40000D02*
X64200Y-40000D01*
X64600Y-38000D02*
X64200Y-38000D01*
X64600Y-37000D02*
X64200Y-37000D01*
X64600Y-36000D02*
X64200Y-36000D01*
X64600Y-35000D02*
X64200Y-35000D01*
X64600Y-34000D02*
X64200Y-34000D01*
X64600Y-33000D02*
X64200Y-33000D01*
X64600Y-32000D02*
X64200Y-32000D01*
X64600Y-31000D02*
X64200Y-31000D01*
X70600Y-31000D02*
X70200Y-31000D01*
X70600Y-32000D02*
X70200Y-32000D01*
X70600Y-33000D02*
X70200Y-33000D01*
X70600Y-34000D02*
X70200Y-34000D01*
X70600Y-35000D02*
X70200Y-35000D01*
X70600Y-36000D02*
X70200Y-36000D01*
X70600Y-37000D02*
X70200Y-37000D01*
X70600Y-38000D02*
X70200Y-38000D01*
X70600Y-39000D02*
X70200Y-39000D01*
X70600Y-40000D02*
X70200Y-40000D01*
X70600Y-42000D02*
X70200Y-42000D01*
G54D12*
X70900Y-42000D03*
X70900Y-41000D03*
X70900Y-40000D03*
X70900Y-39000D03*
X70900Y-38000D03*
X70900Y-37000D03*
X70900Y-36000D03*
X70900Y-35000D03*
X70900Y-34000D03*
X70900Y-33000D03*
X70900Y-32000D03*
X70900Y-31000D03*
X63900Y-31000D03*
X63900Y-32000D03*
X63900Y-33000D03*
X63900Y-34000D03*
X63900Y-35000D03*
X63900Y-36000D03*
X63900Y-37000D03*
X63900Y-38000D03*
X63900Y-39000D03*
X63900Y-40000D03*
X63900Y-41000D03*
X63900Y-42000D03*
X69900Y-42000D03*
X69900Y-41000D03*
X69900Y-40000D03*
X69900Y-39000D03*
X69900Y-38000D03*
X69900Y-37000D03*
X69900Y-36000D03*
X69900Y-35000D03*
X69900Y-34000D03*
X69900Y-33000D03*
X69900Y-32000D03*
X69900Y-31000D03*
X64900Y-31000D03*
X64900Y-32000D03*
X64900Y-33000D03*
X64900Y-34000D03*
X64900Y-35000D03*
X64900Y-36000D03*
X64900Y-37000D03*
X64900Y-38000D03*
X64900Y-39000D03*
X64900Y-40000D03*
X64900Y-41000D03*
X64900Y-42000D03*
G54D13*
X52943Y-38602D03*
X52943Y-34603D03*
G54D14*
X47944Y-40098D03*
X43940Y-33107D03*
X46944Y-33107D03*
G54D15*
X37400Y-42500D03*
X37400Y-30500D03*
X73900Y-42500D03*
X73900Y-30500D03*
G54D16*
X57900Y-43000D03*
G54D12*
X56900Y-43000D03*
X55900Y-43000D03*
G54D16*
X60900Y-39500D03*
G54D12*
X59900Y-39500D03*
X59900Y-30500D03*
X60900Y-30500D03*
G54D16*
X56400Y-36500D03*
G54D12*
X56400Y-33500D03*
X57900Y-39500D03*
X56900Y-39500D03*
X56900Y-40500D03*
G54D16*
X56400Y-30500D03*
G54D12*
X57400Y-30500D03*
X40400Y-43500D03*
X40400Y-42500D03*
G54D17*
X37400Y-38500D03*
X37400Y-34500D03*
G54D18*
X40400Y-39250D03*
X40400Y-33750D03*
G54D16*
X59900Y-43000D03*
G54D12*
X60900Y-43000D03*
X60400Y-33500D03*
X60400Y-36500D03*
X61400Y-33500D03*
X61400Y-36500D03*
X59400Y-33500D03*
X59400Y-36500D03*
X58400Y-33500D03*
X58400Y-36500D03*
X57400Y-33500D03*
X57400Y-36500D03*
G54D19*
X63900Y-42000D02*
X64900Y-42000D01*
X70900Y-42000D02*
X69900Y-42000D01*
X56400Y-36500D02*
X56300Y-36500D01*
X58500Y-41600D02*
X59900Y-43000D01*
X56400Y-41600D02*
X58500Y-41600D01*
X55300Y-40500D02*
X56400Y-41600D01*
X55300Y-37500D02*
X55300Y-40500D01*
X56300Y-36500D02*
X55300Y-37500D01*
X56400Y-30500D02*
X55300Y-31600D01*
X55300Y-35400D02*
X56400Y-36500D01*
X55300Y-31600D02*
X55300Y-35400D01*
X69900Y-31000D02*
X69900Y-30000D01*
X54450Y-41550D02*
X55900Y-43000D01*
X54450Y-30100D02*
X54450Y-41550D01*
X55265Y-29285D02*
X54450Y-30100D01*
X69185Y-29285D02*
X55265Y-29285D01*
X69900Y-30000D02*
X69185Y-29285D01*
X70900Y-31000D02*
X69900Y-31000D01*
X63900Y-31000D02*
X64900Y-31000D01*
X63900Y-32000D02*
X64900Y-32000D01*
X63900Y-39000D02*
X64900Y-39000D01*
X64900Y-39000D02*
X67900Y-39000D01*
X67900Y-39000D02*
X69900Y-41000D01*
X70900Y-41000D02*
X69900Y-41000D01*
X60900Y-43000D02*
X67900Y-43000D01*
X67900Y-43000D02*
X69900Y-41000D01*
X59900Y-39500D02*
X59900Y-42000D01*
X59900Y-42000D02*
X60900Y-43000D01*
X63900Y-39000D02*
X59900Y-39000D01*
X59900Y-39000D02*
X59900Y-37000D01*
X59400Y-36500D02*
X59900Y-37000D01*
X59900Y-39500D02*
X59900Y-39000D01*
X59900Y-37000D02*
X60400Y-36500D01*
X59900Y-39500D02*
X57900Y-39500D01*
G54D20*
X40400Y-33750D02*
X40750Y-33750D01*
X46944Y-33956D02*
X46944Y-33107D01*
X45100Y-35800D02*
X46944Y-33956D01*
X42800Y-35800D02*
X45100Y-35800D01*
X40750Y-33750D02*
X42800Y-35800D01*
X47096Y-39250D02*
X47944Y-40098D01*
X40400Y-39250D02*
X47096Y-39250D01*
G54D10*
G36*
X71850Y-43730D02*
X71450Y-43730D01*
X71450Y-41891D01*
X71366Y-41688D01*
X71211Y-41534D01*
X71009Y-41450D01*
X70791Y-41449D01*
X70588Y-41533D01*
X70472Y-41650D01*
X70327Y-41650D01*
X70211Y-41534D01*
X70009Y-41450D01*
X69791Y-41449D01*
X69588Y-41533D01*
X69434Y-41688D01*
X69350Y-41890D01*
X69349Y-42108D01*
X69433Y-42311D01*
X69588Y-42465D01*
X69790Y-42549D01*
X70008Y-42550D01*
X70211Y-42466D01*
X70327Y-42350D01*
X70472Y-42350D01*
X70588Y-42465D01*
X70790Y-42549D01*
X71008Y-42550D01*
X71211Y-42466D01*
X71365Y-42311D01*
X71449Y-42109D01*
X71450Y-41891D01*
X71450Y-43730D01*
X65450Y-43730D01*
X65450Y-41891D01*
X65366Y-41688D01*
X65211Y-41534D01*
X65130Y-41500D01*
X65211Y-41466D01*
X65365Y-41311D01*
X65449Y-41109D01*
X65450Y-40891D01*
X65366Y-40688D01*
X65211Y-40534D01*
X65130Y-40500D01*
X65211Y-40466D01*
X65365Y-40311D01*
X65449Y-40109D01*
X65450Y-39891D01*
X65450Y-37891D01*
X65366Y-37688D01*
X65211Y-37534D01*
X65130Y-37500D01*
X65211Y-37466D01*
X65365Y-37311D01*
X65449Y-37109D01*
X65450Y-36891D01*
X65366Y-36688D01*
X65211Y-36534D01*
X65130Y-36500D01*
X65211Y-36466D01*
X65365Y-36311D01*
X65449Y-36109D01*
X65450Y-35891D01*
X65366Y-35688D01*
X65211Y-35534D01*
X65130Y-35500D01*
X65211Y-35466D01*
X65365Y-35311D01*
X65449Y-35109D01*
X65450Y-34891D01*
X65366Y-34688D01*
X65211Y-34534D01*
X65130Y-34500D01*
X65211Y-34466D01*
X65365Y-34311D01*
X65449Y-34109D01*
X65450Y-33891D01*
X65366Y-33688D01*
X65211Y-33534D01*
X65130Y-33500D01*
X65211Y-33466D01*
X65365Y-33311D01*
X65449Y-33109D01*
X65450Y-32891D01*
X65366Y-32688D01*
X65211Y-32534D01*
X65130Y-32500D01*
X65211Y-32466D01*
X65365Y-32311D01*
X65449Y-32109D01*
X65450Y-31891D01*
X65366Y-31688D01*
X65211Y-31534D01*
X65130Y-31500D01*
X65211Y-31466D01*
X65365Y-31311D01*
X65449Y-31109D01*
X65450Y-30891D01*
X65366Y-30688D01*
X65211Y-30534D01*
X65009Y-30450D01*
X64791Y-30449D01*
X64588Y-30533D01*
X64472Y-30650D01*
X64327Y-30650D01*
X64211Y-30534D01*
X64009Y-30450D01*
X63791Y-30449D01*
X63588Y-30533D01*
X63434Y-30688D01*
X63350Y-30890D01*
X63349Y-31108D01*
X63433Y-31311D01*
X63588Y-31465D01*
X63669Y-31499D01*
X63588Y-31533D01*
X63434Y-31688D01*
X63350Y-31890D01*
X63349Y-32108D01*
X63433Y-32311D01*
X63588Y-32465D01*
X63669Y-32499D01*
X63588Y-32533D01*
X63434Y-32688D01*
X63350Y-32890D01*
X63349Y-33108D01*
X63433Y-33311D01*
X63588Y-33465D01*
X63669Y-33499D01*
X63588Y-33533D01*
X63434Y-33688D01*
X63350Y-33890D01*
X63349Y-34108D01*
X63433Y-34311D01*
X63588Y-34465D01*
X63669Y-34499D01*
X63588Y-34533D01*
X63434Y-34688D01*
X63350Y-34890D01*
X63349Y-35108D01*
X63433Y-35311D01*
X63588Y-35465D01*
X63669Y-35499D01*
X63588Y-35533D01*
X63434Y-35688D01*
X63350Y-35890D01*
X63349Y-36108D01*
X63433Y-36311D01*
X63588Y-36465D01*
X63669Y-36499D01*
X63588Y-36533D01*
X63434Y-36688D01*
X63350Y-36890D01*
X63349Y-37108D01*
X63433Y-37311D01*
X63588Y-37465D01*
X63669Y-37499D01*
X63588Y-37533D01*
X63434Y-37688D01*
X63350Y-37890D01*
X63349Y-38108D01*
X63433Y-38311D01*
X63588Y-38465D01*
X63790Y-38549D01*
X64008Y-38550D01*
X64211Y-38466D01*
X64327Y-38350D01*
X64472Y-38350D01*
X64588Y-38465D01*
X64790Y-38549D01*
X65008Y-38550D01*
X65211Y-38466D01*
X65365Y-38311D01*
X65449Y-38109D01*
X65450Y-37891D01*
X65450Y-39891D01*
X65366Y-39688D01*
X65211Y-39534D01*
X65009Y-39450D01*
X64791Y-39449D01*
X64588Y-39533D01*
X64472Y-39650D01*
X64327Y-39650D01*
X64211Y-39534D01*
X64009Y-39450D01*
X63791Y-39449D01*
X63588Y-39533D01*
X63434Y-39688D01*
X63350Y-39890D01*
X63349Y-40108D01*
X63433Y-40311D01*
X63588Y-40465D01*
X63669Y-40499D01*
X63588Y-40533D01*
X63434Y-40688D01*
X63350Y-40890D01*
X63349Y-41108D01*
X63433Y-41311D01*
X63588Y-41465D01*
X63669Y-41499D01*
X63588Y-41533D01*
X63434Y-41688D01*
X63350Y-41890D01*
X63349Y-42108D01*
X63433Y-42311D01*
X63588Y-42465D01*
X63790Y-42549D01*
X64008Y-42550D01*
X64211Y-42466D01*
X64327Y-42350D01*
X64472Y-42350D01*
X64588Y-42465D01*
X64790Y-42549D01*
X65008Y-42550D01*
X65211Y-42466D01*
X65365Y-42311D01*
X65449Y-42109D01*
X65450Y-41891D01*
X65450Y-43730D01*
X61950Y-43730D01*
X61950Y-36391D01*
X61950Y-33391D01*
X61866Y-33188D01*
X61711Y-33034D01*
X61509Y-32950D01*
X61450Y-32950D01*
X61450Y-30391D01*
X61366Y-30188D01*
X61211Y-30034D01*
X61009Y-29950D01*
X60791Y-29949D01*
X60588Y-30033D01*
X60434Y-30188D01*
X60400Y-30269D01*
X60366Y-30188D01*
X60211Y-30034D01*
X60009Y-29950D01*
X59791Y-29949D01*
X59588Y-30033D01*
X59434Y-30188D01*
X59350Y-30390D01*
X59349Y-30608D01*
X59433Y-30811D01*
X59588Y-30965D01*
X59790Y-31049D01*
X60008Y-31050D01*
X60211Y-30966D01*
X60365Y-30811D01*
X60399Y-30730D01*
X60433Y-30811D01*
X60588Y-30965D01*
X60790Y-31049D01*
X61008Y-31050D01*
X61211Y-30966D01*
X61365Y-30811D01*
X61449Y-30609D01*
X61450Y-30391D01*
X61450Y-32950D01*
X61291Y-32949D01*
X61088Y-33033D01*
X60934Y-33188D01*
X60900Y-33269D01*
X60866Y-33188D01*
X60711Y-33034D01*
X60509Y-32950D01*
X60291Y-32949D01*
X60088Y-33033D01*
X59934Y-33188D01*
X59900Y-33269D01*
X59866Y-33188D01*
X59711Y-33034D01*
X59509Y-32950D01*
X59291Y-32949D01*
X59088Y-33033D01*
X58934Y-33188D01*
X58900Y-33269D01*
X58866Y-33188D01*
X58711Y-33034D01*
X58509Y-32950D01*
X58291Y-32949D01*
X58088Y-33033D01*
X57934Y-33188D01*
X57900Y-33269D01*
X57866Y-33188D01*
X57711Y-33034D01*
X57509Y-32950D01*
X57291Y-32949D01*
X57088Y-33033D01*
X56934Y-33188D01*
X56900Y-33269D01*
X56866Y-33188D01*
X56711Y-33034D01*
X56509Y-32950D01*
X56291Y-32949D01*
X56088Y-33033D01*
X55934Y-33188D01*
X55850Y-33390D01*
X55849Y-33608D01*
X55933Y-33811D01*
X56088Y-33965D01*
X56290Y-34049D01*
X56508Y-34050D01*
X56711Y-33966D01*
X56865Y-33811D01*
X56899Y-33730D01*
X56933Y-33811D01*
X57088Y-33965D01*
X57290Y-34049D01*
X57508Y-34050D01*
X57711Y-33966D01*
X57865Y-33811D01*
X57899Y-33730D01*
X57933Y-33811D01*
X58088Y-33965D01*
X58290Y-34049D01*
X58508Y-34050D01*
X58711Y-33966D01*
X58865Y-33811D01*
X58899Y-33730D01*
X58933Y-33811D01*
X59088Y-33965D01*
X59290Y-34049D01*
X59508Y-34050D01*
X59711Y-33966D01*
X59865Y-33811D01*
X59899Y-33730D01*
X59933Y-33811D01*
X60088Y-33965D01*
X60290Y-34049D01*
X60508Y-34050D01*
X60711Y-33966D01*
X60865Y-33811D01*
X60899Y-33730D01*
X60933Y-33811D01*
X61088Y-33965D01*
X61290Y-34049D01*
X61508Y-34050D01*
X61711Y-33966D01*
X61865Y-33811D01*
X61949Y-33609D01*
X61950Y-33391D01*
X61950Y-36391D01*
X61866Y-36188D01*
X61711Y-36034D01*
X61509Y-35950D01*
X61291Y-35949D01*
X61088Y-36033D01*
X60934Y-36188D01*
X60850Y-36390D01*
X60849Y-36608D01*
X60933Y-36811D01*
X61088Y-36965D01*
X61290Y-37049D01*
X61508Y-37050D01*
X61711Y-36966D01*
X61865Y-36811D01*
X61949Y-36609D01*
X61950Y-36391D01*
X61950Y-43730D01*
X61450Y-43730D01*
X61450Y-39750D01*
X61450Y-39150D01*
X61412Y-39058D01*
X61341Y-38988D01*
X61249Y-38950D01*
X61150Y-38949D01*
X60550Y-38949D01*
X60458Y-38987D01*
X60388Y-39058D01*
X60350Y-39150D01*
X60349Y-39249D01*
X60349Y-39849D01*
X60387Y-39941D01*
X60458Y-40011D01*
X60550Y-40049D01*
X60649Y-40050D01*
X61249Y-40050D01*
X61341Y-40012D01*
X61411Y-39941D01*
X61449Y-39849D01*
X61450Y-39750D01*
X61450Y-43730D01*
X60450Y-43730D01*
X60450Y-43250D01*
X60450Y-42650D01*
X60412Y-42558D01*
X60341Y-42488D01*
X60249Y-42450D01*
X60150Y-42449D01*
X59774Y-42449D01*
X58712Y-41387D01*
X58614Y-41322D01*
X58500Y-41300D01*
X57450Y-41300D01*
X57450Y-40391D01*
X57366Y-40188D01*
X57211Y-40034D01*
X57130Y-40000D01*
X57211Y-39966D01*
X57365Y-39811D01*
X57449Y-39609D01*
X57450Y-39391D01*
X57366Y-39188D01*
X57211Y-39034D01*
X57009Y-38950D01*
X56791Y-38949D01*
X56588Y-39033D01*
X56434Y-39188D01*
X56350Y-39390D01*
X56349Y-39608D01*
X56433Y-39811D01*
X56588Y-39965D01*
X56669Y-39999D01*
X56588Y-40033D01*
X56434Y-40188D01*
X56350Y-40390D01*
X56349Y-40608D01*
X56433Y-40811D01*
X56588Y-40965D01*
X56790Y-41049D01*
X57008Y-41050D01*
X57211Y-40966D01*
X57365Y-40811D01*
X57449Y-40609D01*
X57450Y-40391D01*
X57450Y-41300D01*
X56524Y-41300D01*
X55600Y-40375D01*
X55600Y-37624D01*
X56174Y-37050D01*
X56749Y-37050D01*
X56841Y-37012D01*
X56911Y-36941D01*
X56949Y-36849D01*
X56949Y-36827D01*
X57088Y-36965D01*
X57290Y-37049D01*
X57508Y-37050D01*
X57711Y-36966D01*
X57865Y-36811D01*
X57899Y-36730D01*
X57933Y-36811D01*
X58088Y-36965D01*
X58290Y-37049D01*
X58508Y-37050D01*
X58711Y-36966D01*
X58865Y-36811D01*
X58949Y-36609D01*
X58950Y-36391D01*
X58866Y-36188D01*
X58711Y-36034D01*
X58509Y-35950D01*
X58291Y-35949D01*
X58088Y-36033D01*
X57934Y-36188D01*
X57900Y-36269D01*
X57866Y-36188D01*
X57711Y-36034D01*
X57509Y-35950D01*
X57291Y-35949D01*
X57088Y-36033D01*
X56950Y-36172D01*
X56950Y-36150D01*
X56912Y-36058D01*
X56841Y-35988D01*
X56749Y-35950D01*
X56650Y-35949D01*
X56274Y-35949D01*
X55600Y-35275D01*
X55600Y-31724D01*
X56274Y-31050D01*
X56749Y-31050D01*
X56841Y-31012D01*
X56911Y-30941D01*
X56949Y-30849D01*
X56949Y-30827D01*
X57088Y-30965D01*
X57290Y-31049D01*
X57508Y-31050D01*
X57711Y-30966D01*
X57865Y-30811D01*
X57949Y-30609D01*
X57950Y-30391D01*
X57866Y-30188D01*
X57711Y-30034D01*
X57509Y-29950D01*
X57291Y-29949D01*
X57088Y-30033D01*
X56950Y-30172D01*
X56950Y-30150D01*
X56912Y-30058D01*
X56841Y-29988D01*
X56749Y-29950D01*
X56650Y-29949D01*
X56050Y-29949D01*
X55958Y-29987D01*
X55888Y-30058D01*
X55850Y-30150D01*
X55849Y-30249D01*
X55849Y-30625D01*
X55087Y-31387D01*
X55022Y-31485D01*
X55000Y-31600D01*
X55000Y-35400D01*
X55022Y-35514D01*
X55087Y-35612D01*
X55849Y-36374D01*
X55849Y-36525D01*
X55087Y-37287D01*
X55022Y-37385D01*
X55000Y-37500D01*
X55000Y-40500D01*
X55022Y-40614D01*
X55087Y-40712D01*
X56187Y-41812D01*
X56187Y-41812D01*
X56285Y-41877D01*
X56400Y-41900D01*
X58375Y-41900D01*
X59349Y-42874D01*
X59349Y-43349D01*
X59387Y-43441D01*
X59458Y-43511D01*
X59550Y-43549D01*
X59649Y-43550D01*
X60249Y-43550D01*
X60341Y-43512D01*
X60411Y-43441D01*
X60449Y-43349D01*
X60450Y-43250D01*
X60450Y-43730D01*
X54450Y-43730D01*
X54450Y-41974D01*
X55354Y-42878D01*
X55350Y-42890D01*
X55349Y-43108D01*
X55433Y-43311D01*
X55588Y-43465D01*
X55790Y-43549D01*
X56008Y-43550D01*
X56211Y-43466D01*
X56365Y-43311D01*
X56399Y-43230D01*
X56433Y-43311D01*
X56588Y-43465D01*
X56790Y-43549D01*
X57008Y-43550D01*
X57211Y-43466D01*
X57349Y-43327D01*
X57349Y-43349D01*
X57387Y-43441D01*
X57458Y-43511D01*
X57550Y-43549D01*
X57649Y-43550D01*
X58249Y-43550D01*
X58341Y-43512D01*
X58411Y-43441D01*
X58449Y-43349D01*
X58450Y-43250D01*
X58450Y-42650D01*
X58412Y-42558D01*
X58341Y-42488D01*
X58249Y-42450D01*
X58150Y-42449D01*
X57550Y-42449D01*
X57458Y-42487D01*
X57388Y-42558D01*
X57350Y-42650D01*
X57350Y-42672D01*
X57211Y-42534D01*
X57009Y-42450D01*
X56791Y-42449D01*
X56588Y-42533D01*
X56434Y-42688D01*
X56400Y-42769D01*
X56366Y-42688D01*
X56211Y-42534D01*
X56009Y-42450D01*
X55791Y-42449D01*
X55779Y-42454D01*
X54750Y-41425D01*
X54750Y-30224D01*
X55389Y-29585D01*
X69060Y-29585D01*
X69600Y-30124D01*
X69600Y-30528D01*
X69588Y-30533D01*
X69434Y-30688D01*
X69350Y-30890D01*
X69349Y-31108D01*
X69433Y-31311D01*
X69588Y-31465D01*
X69669Y-31499D01*
X69588Y-31533D01*
X69434Y-31688D01*
X69350Y-31890D01*
X69349Y-32108D01*
X69433Y-32311D01*
X69588Y-32465D01*
X69669Y-32499D01*
X69588Y-32533D01*
X69434Y-32688D01*
X69350Y-32890D01*
X69349Y-33108D01*
X69433Y-33311D01*
X69588Y-33465D01*
X69669Y-33499D01*
X69588Y-33533D01*
X69434Y-33688D01*
X69350Y-33890D01*
X69349Y-34108D01*
X69433Y-34311D01*
X69588Y-34465D01*
X69669Y-34499D01*
X69588Y-34533D01*
X69434Y-34688D01*
X69350Y-34890D01*
X69349Y-35108D01*
X69433Y-35311D01*
X69588Y-35465D01*
X69669Y-35499D01*
X69588Y-35533D01*
X69434Y-35688D01*
X69350Y-35890D01*
X69349Y-36108D01*
X69433Y-36311D01*
X69588Y-36465D01*
X69669Y-36499D01*
X69588Y-36533D01*
X69434Y-36688D01*
X69350Y-36890D01*
X69349Y-37108D01*
X69433Y-37311D01*
X69588Y-37465D01*
X69669Y-37499D01*
X69588Y-37533D01*
X69434Y-37688D01*
X69350Y-37890D01*
X69349Y-38108D01*
X69433Y-38311D01*
X69588Y-38465D01*
X69669Y-38499D01*
X69588Y-38533D01*
X69434Y-38688D01*
X69350Y-38890D01*
X69349Y-39108D01*
X69433Y-39311D01*
X69588Y-39465D01*
X69669Y-39499D01*
X69588Y-39533D01*
X69434Y-39688D01*
X69350Y-39890D01*
X69349Y-40108D01*
X69433Y-40311D01*
X69588Y-40465D01*
X69790Y-40549D01*
X70008Y-40550D01*
X70211Y-40466D01*
X70327Y-40350D01*
X70472Y-40350D01*
X70588Y-40465D01*
X70790Y-40549D01*
X71008Y-40550D01*
X71211Y-40466D01*
X71365Y-40311D01*
X71449Y-40109D01*
X71450Y-39891D01*
X71366Y-39688D01*
X71211Y-39534D01*
X71130Y-39500D01*
X71211Y-39466D01*
X71365Y-39311D01*
X71449Y-39109D01*
X71450Y-38891D01*
X71366Y-38688D01*
X71211Y-38534D01*
X71130Y-38500D01*
X71211Y-38466D01*
X71365Y-38311D01*
X71449Y-38109D01*
X71450Y-37891D01*
X71366Y-37688D01*
X71211Y-37534D01*
X71130Y-37500D01*
X71211Y-37466D01*
X71365Y-37311D01*
X71449Y-37109D01*
X71450Y-36891D01*
X71366Y-36688D01*
X71211Y-36534D01*
X71130Y-36500D01*
X71211Y-36466D01*
X71365Y-36311D01*
X71449Y-36109D01*
X71450Y-35891D01*
X71366Y-35688D01*
X71211Y-35534D01*
X71130Y-35500D01*
X71211Y-35466D01*
X71365Y-35311D01*
X71449Y-35109D01*
X71450Y-34891D01*
X71366Y-34688D01*
X71211Y-34534D01*
X71130Y-34500D01*
X71211Y-34466D01*
X71365Y-34311D01*
X71449Y-34109D01*
X71450Y-33891D01*
X71366Y-33688D01*
X71211Y-33534D01*
X71130Y-33500D01*
X71211Y-33466D01*
X71365Y-33311D01*
X71449Y-33109D01*
X71450Y-32891D01*
X71366Y-32688D01*
X71211Y-32534D01*
X71130Y-32500D01*
X71211Y-32466D01*
X71365Y-32311D01*
X71449Y-32109D01*
X71450Y-31891D01*
X71366Y-31688D01*
X71211Y-31534D01*
X71130Y-31500D01*
X71211Y-31466D01*
X71365Y-31311D01*
X71449Y-31109D01*
X71450Y-30891D01*
X71366Y-30688D01*
X71211Y-30534D01*
X71009Y-30450D01*
X70791Y-30449D01*
X70588Y-30533D01*
X70472Y-30650D01*
X70327Y-30650D01*
X70211Y-30534D01*
X70200Y-30529D01*
X70200Y-30000D01*
X70177Y-29885D01*
X70112Y-29787D01*
X70112Y-29787D01*
X69593Y-29269D01*
X71850Y-29269D01*
X71850Y-43730D01*
X71850Y-43730D01*
G37*
G54D19*
X71850Y-43730D02*
X71450Y-43730D01*
X71450Y-41891D01*
X71366Y-41688D01*
X71211Y-41534D01*
X71009Y-41450D01*
X70791Y-41449D01*
X70588Y-41533D01*
X70472Y-41650D01*
X70327Y-41650D01*
X70211Y-41534D01*
X70009Y-41450D01*
X69791Y-41449D01*
X69588Y-41533D01*
X69434Y-41688D01*
X69350Y-41890D01*
X69349Y-42108D01*
X69433Y-42311D01*
X69588Y-42465D01*
X69790Y-42549D01*
X70008Y-42550D01*
X70211Y-42466D01*
X70327Y-42350D01*
X70472Y-42350D01*
X70588Y-42465D01*
X70790Y-42549D01*
X71008Y-42550D01*
X71211Y-42466D01*
X71365Y-42311D01*
X71449Y-42109D01*
X71450Y-41891D01*
X71450Y-43730D01*
X65450Y-43730D01*
X65450Y-41891D01*
X65366Y-41688D01*
X65211Y-41534D01*
X65130Y-41500D01*
X65211Y-41466D01*
X65365Y-41311D01*
X65449Y-41109D01*
X65450Y-40891D01*
X65366Y-40688D01*
X65211Y-40534D01*
X65130Y-40500D01*
X65211Y-40466D01*
X65365Y-40311D01*
X65449Y-40109D01*
X65450Y-39891D01*
X65450Y-37891D01*
X65366Y-37688D01*
X65211Y-37534D01*
X65130Y-37500D01*
X65211Y-37466D01*
X65365Y-37311D01*
X65449Y-37109D01*
X65450Y-36891D01*
X65366Y-36688D01*
X65211Y-36534D01*
X65130Y-36500D01*
X65211Y-36466D01*
X65365Y-36311D01*
X65449Y-36109D01*
X65450Y-35891D01*
X65366Y-35688D01*
X65211Y-35534D01*
X65130Y-35500D01*
X65211Y-35466D01*
X65365Y-35311D01*
X65449Y-35109D01*
X65450Y-34891D01*
X65366Y-34688D01*
X65211Y-34534D01*
X65130Y-34500D01*
X65211Y-34466D01*
X65365Y-34311D01*
X65449Y-34109D01*
X65450Y-33891D01*
X65366Y-33688D01*
X65211Y-33534D01*
X65130Y-33500D01*
X65211Y-33466D01*
X65365Y-33311D01*
X65449Y-33109D01*
X65450Y-32891D01*
X65366Y-32688D01*
X65211Y-32534D01*
X65130Y-32500D01*
X65211Y-32466D01*
X65365Y-32311D01*
X65449Y-32109D01*
X65450Y-31891D01*
X65366Y-31688D01*
X65211Y-31534D01*
X65130Y-31500D01*
X65211Y-31466D01*
X65365Y-31311D01*
X65449Y-31109D01*
X65450Y-30891D01*
X65366Y-30688D01*
X65211Y-30534D01*
X65009Y-30450D01*
X64791Y-30449D01*
X64588Y-30533D01*
X64472Y-30650D01*
X64327Y-30650D01*
X64211Y-30534D01*
X64009Y-30450D01*
X63791Y-30449D01*
X63588Y-30533D01*
X63434Y-30688D01*
X63350Y-30890D01*
X63349Y-31108D01*
X63433Y-31311D01*
X63588Y-31465D01*
X63669Y-31499D01*
X63588Y-31533D01*
X63434Y-31688D01*
X63350Y-31890D01*
X63349Y-32108D01*
X63433Y-32311D01*
X63588Y-32465D01*
X63669Y-32499D01*
X63588Y-32533D01*
X63434Y-32688D01*
X63350Y-32890D01*
X63349Y-33108D01*
X63433Y-33311D01*
X63588Y-33465D01*
X63669Y-33499D01*
X63588Y-33533D01*
X63434Y-33688D01*
X63350Y-33890D01*
X63349Y-34108D01*
X63433Y-34311D01*
X63588Y-34465D01*
X63669Y-34499D01*
X63588Y-34533D01*
X63434Y-34688D01*
X63350Y-34890D01*
X63349Y-35108D01*
X63433Y-35311D01*
X63588Y-35465D01*
X63669Y-35499D01*
X63588Y-35533D01*
X63434Y-35688D01*
X63350Y-35890D01*
X63349Y-36108D01*
X63433Y-36311D01*
X63588Y-36465D01*
X63669Y-36499D01*
X63588Y-36533D01*
X63434Y-36688D01*
X63350Y-36890D01*
X63349Y-37108D01*
X63433Y-37311D01*
X63588Y-37465D01*
X63669Y-37499D01*
X63588Y-37533D01*
X63434Y-37688D01*
X63350Y-37890D01*
X63349Y-38108D01*
X63433Y-38311D01*
X63588Y-38465D01*
X63790Y-38549D01*
X64008Y-38550D01*
X64211Y-38466D01*
X64327Y-38350D01*
X64472Y-38350D01*
X64588Y-38465D01*
X64790Y-38549D01*
X65008Y-38550D01*
X65211Y-38466D01*
X65365Y-38311D01*
X65449Y-38109D01*
X65450Y-37891D01*
X65450Y-39891D01*
X65366Y-39688D01*
X65211Y-39534D01*
X65009Y-39450D01*
X64791Y-39449D01*
X64588Y-39533D01*
X64472Y-39650D01*
X64327Y-39650D01*
X64211Y-39534D01*
X64009Y-39450D01*
X63791Y-39449D01*
X63588Y-39533D01*
X63434Y-39688D01*
X63350Y-39890D01*
X63349Y-40108D01*
X63433Y-40311D01*
X63588Y-40465D01*
X63669Y-40499D01*
X63588Y-40533D01*
X63434Y-40688D01*
X63350Y-40890D01*
X63349Y-41108D01*
X63433Y-41311D01*
X63588Y-41465D01*
X63669Y-41499D01*
X63588Y-41533D01*
X63434Y-41688D01*
X63350Y-41890D01*
X63349Y-42108D01*
X63433Y-42311D01*
X63588Y-42465D01*
X63790Y-42549D01*
X64008Y-42550D01*
X64211Y-42466D01*
X64327Y-42350D01*
X64472Y-42350D01*
X64588Y-42465D01*
X64790Y-42549D01*
X65008Y-42550D01*
X65211Y-42466D01*
X65365Y-42311D01*
X65449Y-42109D01*
X65450Y-41891D01*
X65450Y-43730D01*
X61950Y-43730D01*
X61950Y-36391D01*
X61950Y-33391D01*
X61866Y-33188D01*
X61711Y-33034D01*
X61509Y-32950D01*
X61450Y-32950D01*
X61450Y-30391D01*
X61366Y-30188D01*
X61211Y-30034D01*
X61009Y-29950D01*
X60791Y-29949D01*
X60588Y-30033D01*
X60434Y-30188D01*
X60400Y-30269D01*
X60366Y-30188D01*
X60211Y-30034D01*
X60009Y-29950D01*
X59791Y-29949D01*
X59588Y-30033D01*
X59434Y-30188D01*
X59350Y-30390D01*
X59349Y-30608D01*
X59433Y-30811D01*
X59588Y-30965D01*
X59790Y-31049D01*
X60008Y-31050D01*
X60211Y-30966D01*
X60365Y-30811D01*
X60399Y-30730D01*
X60433Y-30811D01*
X60588Y-30965D01*
X60790Y-31049D01*
X61008Y-31050D01*
X61211Y-30966D01*
X61365Y-30811D01*
X61449Y-30609D01*
X61450Y-30391D01*
X61450Y-32950D01*
X61291Y-32949D01*
X61088Y-33033D01*
X60934Y-33188D01*
X60900Y-33269D01*
X60866Y-33188D01*
X60711Y-33034D01*
X60509Y-32950D01*
X60291Y-32949D01*
X60088Y-33033D01*
X59934Y-33188D01*
X59900Y-33269D01*
X59866Y-33188D01*
X59711Y-33034D01*
X59509Y-32950D01*
X59291Y-32949D01*
X59088Y-33033D01*
X58934Y-33188D01*
X58900Y-33269D01*
X58866Y-33188D01*
X58711Y-33034D01*
X58509Y-32950D01*
X58291Y-32949D01*
X58088Y-33033D01*
X57934Y-33188D01*
X57900Y-33269D01*
X57866Y-33188D01*
X57711Y-33034D01*
X57509Y-32950D01*
X57291Y-32949D01*
X57088Y-33033D01*
X56934Y-33188D01*
X56900Y-33269D01*
X56866Y-33188D01*
X56711Y-33034D01*
X56509Y-32950D01*
X56291Y-32949D01*
X56088Y-33033D01*
X55934Y-33188D01*
X55850Y-33390D01*
X55849Y-33608D01*
X55933Y-33811D01*
X56088Y-33965D01*
X56290Y-34049D01*
X56508Y-34050D01*
X56711Y-33966D01*
X56865Y-33811D01*
X56899Y-33730D01*
X56933Y-33811D01*
X57088Y-33965D01*
X57290Y-34049D01*
X57508Y-34050D01*
X57711Y-33966D01*
X57865Y-33811D01*
X57899Y-33730D01*
X57933Y-33811D01*
X58088Y-33965D01*
X58290Y-34049D01*
X58508Y-34050D01*
X58711Y-33966D01*
X58865Y-33811D01*
X58899Y-33730D01*
X58933Y-33811D01*
X59088Y-33965D01*
X59290Y-34049D01*
X59508Y-34050D01*
X59711Y-33966D01*
X59865Y-33811D01*
X59899Y-33730D01*
X59933Y-33811D01*
X60088Y-33965D01*
X60290Y-34049D01*
X60508Y-34050D01*
X60711Y-33966D01*
X60865Y-33811D01*
X60899Y-33730D01*
X60933Y-33811D01*
X61088Y-33965D01*
X61290Y-34049D01*
X61508Y-34050D01*
X61711Y-33966D01*
X61865Y-33811D01*
X61949Y-33609D01*
X61950Y-33391D01*
X61950Y-36391D01*
X61866Y-36188D01*
X61711Y-36034D01*
X61509Y-35950D01*
X61291Y-35949D01*
X61088Y-36033D01*
X60934Y-36188D01*
X60850Y-36390D01*
X60849Y-36608D01*
X60933Y-36811D01*
X61088Y-36965D01*
X61290Y-37049D01*
X61508Y-37050D01*
X61711Y-36966D01*
X61865Y-36811D01*
X61949Y-36609D01*
X61950Y-36391D01*
X61950Y-43730D01*
X61450Y-43730D01*
X61450Y-39750D01*
X61450Y-39150D01*
X61412Y-39058D01*
X61341Y-38988D01*
X61249Y-38950D01*
X61150Y-38949D01*
X60550Y-38949D01*
X60458Y-38987D01*
X60388Y-39058D01*
X60350Y-39150D01*
X60349Y-39249D01*
X60349Y-39849D01*
X60387Y-39941D01*
X60458Y-40011D01*
X60550Y-40049D01*
X60649Y-40050D01*
X61249Y-40050D01*
X61341Y-40012D01*
X61411Y-39941D01*
X61449Y-39849D01*
X61450Y-39750D01*
X61450Y-43730D01*
X60450Y-43730D01*
X60450Y-43250D01*
X60450Y-42650D01*
X60412Y-42558D01*
X60341Y-42488D01*
X60249Y-42450D01*
X60150Y-42449D01*
X59774Y-42449D01*
X58712Y-41387D01*
X58614Y-41322D01*
X58500Y-41300D01*
X57450Y-41300D01*
X57450Y-40391D01*
X57366Y-40188D01*
X57211Y-40034D01*
X57130Y-40000D01*
X57211Y-39966D01*
X57365Y-39811D01*
X57449Y-39609D01*
X57450Y-39391D01*
X57366Y-39188D01*
X57211Y-39034D01*
X57009Y-38950D01*
X56791Y-38949D01*
X56588Y-39033D01*
X56434Y-39188D01*
X56350Y-39390D01*
X56349Y-39608D01*
X56433Y-39811D01*
X56588Y-39965D01*
X56669Y-39999D01*
X56588Y-40033D01*
X56434Y-40188D01*
X56350Y-40390D01*
X56349Y-40608D01*
X56433Y-40811D01*
X56588Y-40965D01*
X56790Y-41049D01*
X57008Y-41050D01*
X57211Y-40966D01*
X57365Y-40811D01*
X57449Y-40609D01*
X57450Y-40391D01*
X57450Y-41300D01*
X56524Y-41300D01*
X55600Y-40375D01*
X55600Y-37624D01*
X56174Y-37050D01*
X56749Y-37050D01*
X56841Y-37012D01*
X56911Y-36941D01*
X56949Y-36849D01*
X56949Y-36827D01*
X57088Y-36965D01*
X57290Y-37049D01*
X57508Y-37050D01*
X57711Y-36966D01*
X57865Y-36811D01*
X57899Y-36730D01*
X57933Y-36811D01*
X58088Y-36965D01*
X58290Y-37049D01*
X58508Y-37050D01*
X58711Y-36966D01*
X58865Y-36811D01*
X58949Y-36609D01*
X58950Y-36391D01*
X58866Y-36188D01*
X58711Y-36034D01*
X58509Y-35950D01*
X58291Y-35949D01*
X58088Y-36033D01*
X57934Y-36188D01*
X57900Y-36269D01*
X57866Y-36188D01*
X57711Y-36034D01*
X57509Y-35950D01*
X57291Y-35949D01*
X57088Y-36033D01*
X56950Y-36172D01*
X56950Y-36150D01*
X56912Y-36058D01*
X56841Y-35988D01*
X56749Y-35950D01*
X56650Y-35949D01*
X56274Y-35949D01*
X55600Y-35275D01*
X55600Y-31724D01*
X56274Y-31050D01*
X56749Y-31050D01*
X56841Y-31012D01*
X56911Y-30941D01*
X56949Y-30849D01*
X56949Y-30827D01*
X57088Y-30965D01*
X57290Y-31049D01*
X57508Y-31050D01*
X57711Y-30966D01*
X57865Y-30811D01*
X57949Y-30609D01*
X57950Y-30391D01*
X57866Y-30188D01*
X57711Y-30034D01*
X57509Y-29950D01*
X57291Y-29949D01*
X57088Y-30033D01*
X56950Y-30172D01*
X56950Y-30150D01*
X56912Y-30058D01*
X56841Y-29988D01*
X56749Y-29950D01*
X56650Y-29949D01*
X56050Y-29949D01*
X55958Y-29987D01*
X55888Y-30058D01*
X55850Y-30150D01*
X55849Y-30249D01*
X55849Y-30625D01*
X55087Y-31387D01*
X55022Y-31485D01*
X55000Y-31600D01*
X55000Y-35400D01*
X55022Y-35514D01*
X55087Y-35612D01*
X55849Y-36374D01*
X55849Y-36525D01*
X55087Y-37287D01*
X55022Y-37385D01*
X55000Y-37500D01*
X55000Y-40500D01*
X55022Y-40614D01*
X55087Y-40712D01*
X56187Y-41812D01*
X56187Y-41812D01*
X56285Y-41877D01*
X56400Y-41900D01*
X58375Y-41900D01*
X59349Y-42874D01*
X59349Y-43349D01*
X59387Y-43441D01*
X59458Y-43511D01*
X59550Y-43549D01*
X59649Y-43550D01*
X60249Y-43550D01*
X60341Y-43512D01*
X60411Y-43441D01*
X60449Y-43349D01*
X60450Y-43250D01*
X60450Y-43730D01*
X54450Y-43730D01*
X54450Y-41974D01*
X55354Y-42878D01*
X55350Y-42890D01*
X55349Y-43108D01*
X55433Y-43311D01*
X55588Y-43465D01*
X55790Y-43549D01*
X56008Y-43550D01*
X56211Y-43466D01*
X56365Y-43311D01*
X56399Y-43230D01*
X56433Y-43311D01*
X56588Y-43465D01*
X56790Y-43549D01*
X57008Y-43550D01*
X57211Y-43466D01*
X57349Y-43327D01*
X57349Y-43349D01*
X57387Y-43441D01*
X57458Y-43511D01*
X57550Y-43549D01*
X57649Y-43550D01*
X58249Y-43550D01*
X58341Y-43512D01*
X58411Y-43441D01*
X58449Y-43349D01*
X58450Y-43250D01*
X58450Y-42650D01*
X58412Y-42558D01*
X58341Y-42488D01*
X58249Y-42450D01*
X58150Y-42449D01*
X57550Y-42449D01*
X57458Y-42487D01*
X57388Y-42558D01*
X57350Y-42650D01*
X57350Y-42672D01*
X57211Y-42534D01*
X57009Y-42450D01*
X56791Y-42449D01*
X56588Y-42533D01*
X56434Y-42688D01*
X56400Y-42769D01*
X56366Y-42688D01*
X56211Y-42534D01*
X56009Y-42450D01*
X55791Y-42449D01*
X55779Y-42454D01*
X54750Y-41425D01*
X54750Y-30224D01*
X55389Y-29585D01*
X69060Y-29585D01*
X69600Y-30124D01*
X69600Y-30528D01*
X69588Y-30533D01*
X69434Y-30688D01*
X69350Y-30890D01*
X69349Y-31108D01*
X69433Y-31311D01*
X69588Y-31465D01*
X69669Y-31499D01*
X69588Y-31533D01*
X69434Y-31688D01*
X69350Y-31890D01*
X69349Y-32108D01*
X69433Y-32311D01*
X69588Y-32465D01*
X69669Y-32499D01*
X69588Y-32533D01*
X69434Y-32688D01*
X69350Y-32890D01*
X69349Y-33108D01*
X69433Y-33311D01*
X69588Y-33465D01*
X69669Y-33499D01*
X69588Y-33533D01*
X69434Y-33688D01*
X69350Y-33890D01*
X69349Y-34108D01*
X69433Y-34311D01*
X69588Y-34465D01*
X69669Y-34499D01*
X69588Y-34533D01*
X69434Y-34688D01*
X69350Y-34890D01*
X69349Y-35108D01*
X69433Y-35311D01*
X69588Y-35465D01*
X69669Y-35499D01*
X69588Y-35533D01*
X69434Y-35688D01*
X69350Y-35890D01*
X69349Y-36108D01*
X69433Y-36311D01*
X69588Y-36465D01*
X69669Y-36499D01*
X69588Y-36533D01*
X69434Y-36688D01*
X69350Y-36890D01*
X69349Y-37108D01*
X69433Y-37311D01*
X69588Y-37465D01*
X69669Y-37499D01*
X69588Y-37533D01*
X69434Y-37688D01*
X69350Y-37890D01*
X69349Y-38108D01*
X69433Y-38311D01*
X69588Y-38465D01*
X69669Y-38499D01*
X69588Y-38533D01*
X69434Y-38688D01*
X69350Y-38890D01*
X69349Y-39108D01*
X69433Y-39311D01*
X69588Y-39465D01*
X69669Y-39499D01*
X69588Y-39533D01*
X69434Y-39688D01*
X69350Y-39890D01*
X69349Y-40108D01*
X69433Y-40311D01*
X69588Y-40465D01*
X69790Y-40549D01*
X70008Y-40550D01*
X70211Y-40466D01*
X70327Y-40350D01*
X70472Y-40350D01*
X70588Y-40465D01*
X70790Y-40549D01*
X71008Y-40550D01*
X71211Y-40466D01*
X71365Y-40311D01*
X71449Y-40109D01*
X71450Y-39891D01*
X71366Y-39688D01*
X71211Y-39534D01*
X71130Y-39500D01*
X71211Y-39466D01*
X71365Y-39311D01*
X71449Y-39109D01*
X71450Y-38891D01*
X71366Y-38688D01*
X71211Y-38534D01*
X71130Y-38500D01*
X71211Y-38466D01*
X71365Y-38311D01*
X71449Y-38109D01*
X71450Y-37891D01*
X71366Y-37688D01*
X71211Y-37534D01*
X71130Y-37500D01*
X71211Y-37466D01*
X71365Y-37311D01*
X71449Y-37109D01*
X71450Y-36891D01*
X71366Y-36688D01*
X71211Y-36534D01*
X71130Y-36500D01*
X71211Y-36466D01*
X71365Y-36311D01*
X71449Y-36109D01*
X71450Y-35891D01*
X71366Y-35688D01*
X71211Y-35534D01*
X71130Y-35500D01*
X71211Y-35466D01*
X71365Y-35311D01*
X71449Y-35109D01*
X71450Y-34891D01*
X71366Y-34688D01*
X71211Y-34534D01*
X71130Y-34500D01*
X71211Y-34466D01*
X71365Y-34311D01*
X71449Y-34109D01*
X71450Y-33891D01*
X71366Y-33688D01*
X71211Y-33534D01*
X71130Y-33500D01*
X71211Y-33466D01*
X71365Y-33311D01*
X71449Y-33109D01*
X71450Y-32891D01*
X71366Y-32688D01*
X71211Y-32534D01*
X71130Y-32500D01*
X71211Y-32466D01*
X71365Y-32311D01*
X71449Y-32109D01*
X71450Y-31891D01*
X71366Y-31688D01*
X71211Y-31534D01*
X71130Y-31500D01*
X71211Y-31466D01*
X71365Y-31311D01*
X71449Y-31109D01*
X71450Y-30891D01*
X71366Y-30688D01*
X71211Y-30534D01*
X71009Y-30450D01*
X70791Y-30449D01*
X70588Y-30533D01*
X70472Y-30650D01*
X70327Y-30650D01*
X70211Y-30534D01*
X70200Y-30529D01*
X70200Y-30000D01*
X70177Y-29885D01*
X70112Y-29787D01*
X70112Y-29787D01*
X69593Y-29269D01*
X71850Y-29269D01*
X71850Y-43730D01*
M02*
