G04 (created by PCBNEW (2013-07-07 BZR 4022)-stable) date Tue 03 Sep 2013 18:57:52 CST*
%MOIN*%
G04 Gerber Fmt 3.4, Leading zero omitted, Abs format*
%FSLAX34Y34*%
G01*
G70*
G90*
G04 APERTURE LIST*
%ADD10C,0.006*%
%ADD11C,0.2*%
%ADD12C,0.06*%
%ADD13C,0.065*%
%ADD14C,0.121*%
%ADD15C,0.15748*%
%ADD16R,0.06X0.06*%
%ADD17C,0.17*%
%ADD18C,0.3*%
G04 APERTURE END LIST*
G54D10*
G54D11*
X40490Y-33500D02*
X40380Y-33500D01*
X42790Y-35790D02*
X40500Y-33500D01*
X45100Y-35800D02*
X42800Y-35800D01*
X46940Y-33960D02*
X45110Y-35790D01*
X46944Y-33107D02*
X46944Y-33957D01*
X47110Y-39260D02*
X46840Y-39260D01*
X47950Y-40100D02*
X47110Y-39260D01*
X40400Y-39250D02*
X46900Y-39250D01*
G54D12*
X70900Y-42000D03*
X70900Y-41000D03*
X70900Y-40000D03*
X70900Y-39000D03*
X70900Y-38000D03*
X70900Y-37000D03*
X70900Y-36000D03*
X70900Y-35000D03*
X70900Y-34000D03*
X70900Y-33000D03*
X70900Y-32000D03*
X70900Y-31000D03*
X63900Y-31000D03*
X63900Y-32000D03*
X63900Y-33000D03*
X63900Y-34000D03*
X63900Y-35000D03*
X63900Y-36000D03*
X63900Y-37000D03*
X63900Y-38000D03*
X63900Y-39000D03*
X63900Y-40000D03*
X63900Y-41000D03*
X63900Y-42000D03*
X69900Y-42000D03*
X69900Y-41000D03*
X69900Y-40000D03*
X69900Y-39000D03*
X69900Y-38000D03*
X69900Y-37000D03*
X69900Y-36000D03*
X69900Y-35000D03*
X69900Y-34000D03*
X69900Y-33000D03*
X69900Y-32000D03*
X69900Y-31000D03*
X64900Y-31000D03*
X64900Y-32000D03*
X64900Y-33000D03*
X64900Y-34000D03*
X64900Y-35000D03*
X64900Y-36000D03*
X64900Y-37000D03*
X64900Y-38000D03*
X64900Y-39000D03*
X64900Y-40000D03*
X64900Y-41000D03*
X64900Y-42000D03*
G54D13*
X52943Y-38602D03*
X52943Y-34603D03*
G54D14*
X47944Y-40098D03*
X43940Y-33107D03*
X46944Y-33107D03*
G54D15*
X37400Y-42500D03*
X37400Y-30500D03*
X73900Y-42500D03*
X73900Y-30500D03*
G54D16*
X57900Y-43000D03*
G54D12*
X56900Y-43000D03*
X55900Y-43000D03*
G54D16*
X60900Y-39500D03*
G54D12*
X59900Y-39500D03*
X59900Y-30500D03*
X60900Y-30500D03*
G54D16*
X56400Y-36500D03*
G54D12*
X56400Y-33500D03*
X57900Y-39500D03*
X56900Y-39500D03*
X56900Y-40500D03*
G54D16*
X56400Y-30500D03*
G54D12*
X57400Y-30500D03*
X40400Y-43500D03*
X40400Y-42500D03*
G54D17*
X37400Y-38500D03*
X37400Y-34500D03*
G54D18*
X40400Y-39250D03*
X40400Y-33750D03*
G54D16*
X59900Y-43000D03*
G54D12*
X60900Y-43000D03*
X60400Y-33500D03*
X60400Y-36500D03*
X61400Y-33500D03*
X61400Y-36500D03*
X59400Y-33500D03*
X59400Y-36500D03*
X58400Y-33500D03*
X58400Y-36500D03*
X57400Y-33500D03*
X57400Y-36500D03*
M02*
