M48
INCH,TZ
T1C0.040
T2C0.045
T3C0.081
T4C0.120
T5C0.150
T6C0.220
%
G90
G05
T1
X040400Y-042500
X040400Y-043500
X055900Y-043000
X056400Y-030500
X056400Y-033500
X056400Y-036500
X056900Y-039500
X056900Y-040500
X056900Y-043000
X057400Y-030500
X057400Y-033500
X057400Y-036500
X057900Y-039500
X057900Y-043000
X058400Y-033500
X058400Y-036500
X059400Y-033500
X059400Y-036500
X059900Y-030500
X059900Y-039500
X059900Y-043000
X060400Y-033500
X060400Y-036500
X060900Y-030500
X060900Y-039500
X060900Y-043000
X061400Y-033500
X061400Y-036500
X063900Y-031000
X063900Y-032000
X063900Y-033000
X063900Y-034000
X063900Y-035000
X063900Y-036000
X063900Y-037000
X063900Y-038000
X063900Y-039000
X063900Y-040000
X063900Y-041000
X063900Y-042000
X064900Y-031000
X064900Y-032000
X064900Y-033000
X064900Y-034000
X064900Y-035000
X064900Y-036000
X064900Y-037000
X064900Y-038000
X064900Y-039000
X064900Y-040000
X064900Y-041000
X064900Y-042000
X069900Y-031000
X069900Y-032000
X069900Y-033000
X069900Y-034000
X069900Y-035000
X069900Y-036000
X069900Y-037000
X069900Y-038000
X069900Y-039000
X069900Y-040000
X069900Y-041000
X069900Y-042000
X070900Y-031000
X070900Y-032000
X070900Y-033000
X070900Y-034000
X070900Y-035000
X070900Y-036000
X070900Y-037000
X070900Y-038000
X070900Y-039000
X070900Y-040000
X070900Y-041000
X070900Y-042000
T2
X052943Y-034603
X052943Y-038602
T3
X043940Y-033107
X046944Y-033107
X047944Y-040098
T4
X037400Y-030500
X037400Y-042500
X073900Y-030500
X073900Y-042500
T5
X037400Y-034500
X037400Y-038500
T6
X040400Y-033750
X040400Y-039250
T0
M30
