G04 (created by PCBNEW (2013-07-07 BZR 4022)-stable) date Tue 03 Sep 2013 18:57:52 CST*
%MOIN*%
G04 Gerber Fmt 3.4, Leading zero omitted, Abs format*
%FSLAX34Y34*%
G01*
G70*
G90*
G04 APERTURE LIST*
%ADD10C,0.006*%
%ADD11C,0.0001*%
%ADD12C,0.06*%
%ADD13C,0.065*%
%ADD14C,0.121*%
%ADD15C,0.15748*%
%ADD16R,0.06X0.06*%
%ADD17C,0.17*%
%ADD18C,0.3*%
G04 APERTURE END LIST*
G54D10*
G54D11*
G36*
X51684Y-31561D02*
X51697Y-31554D01*
X51724Y-31537D01*
X51764Y-31511D01*
X51810Y-31480D01*
X51857Y-31448D01*
X51896Y-31422D01*
X51923Y-31405D01*
X51934Y-31399D01*
X51940Y-31401D01*
X51962Y-31412D01*
X51994Y-31429D01*
X52013Y-31438D01*
X52043Y-31451D01*
X52057Y-31454D01*
X52060Y-31450D01*
X52071Y-31427D01*
X52088Y-31388D01*
X52110Y-31337D01*
X52136Y-31277D01*
X52163Y-31212D01*
X52190Y-31146D01*
X52216Y-31084D01*
X52240Y-31027D01*
X52258Y-30981D01*
X52270Y-30949D01*
X52275Y-30935D01*
X52273Y-30932D01*
X52259Y-30918D01*
X52233Y-30899D01*
X52177Y-30853D01*
X52122Y-30784D01*
X52088Y-30706D01*
X52077Y-30619D01*
X52086Y-30539D01*
X52118Y-30462D01*
X52172Y-30392D01*
X52238Y-30340D01*
X52314Y-30308D01*
X52400Y-30297D01*
X52482Y-30306D01*
X52561Y-30337D01*
X52631Y-30390D01*
X52660Y-30424D01*
X52701Y-30495D01*
X52724Y-30570D01*
X52726Y-30589D01*
X52723Y-30672D01*
X52698Y-30752D01*
X52655Y-30823D01*
X52594Y-30881D01*
X52586Y-30887D01*
X52558Y-30908D01*
X52539Y-30922D01*
X52524Y-30934D01*
X52630Y-31189D01*
X52647Y-31229D01*
X52676Y-31298D01*
X52701Y-31358D01*
X52722Y-31406D01*
X52736Y-31438D01*
X52742Y-31451D01*
X52743Y-31451D01*
X52752Y-31453D01*
X52771Y-31446D01*
X52807Y-31429D01*
X52830Y-31417D01*
X52857Y-31404D01*
X52869Y-31399D01*
X52880Y-31404D01*
X52906Y-31421D01*
X52943Y-31447D01*
X52989Y-31477D01*
X53032Y-31507D01*
X53072Y-31533D01*
X53101Y-31552D01*
X53115Y-31559D01*
X53117Y-31559D01*
X53130Y-31552D01*
X53153Y-31533D01*
X53187Y-31500D01*
X53236Y-31452D01*
X53244Y-31445D01*
X53284Y-31404D01*
X53317Y-31369D01*
X53339Y-31345D01*
X53347Y-31334D01*
X53347Y-31334D01*
X53339Y-31320D01*
X53321Y-31291D01*
X53295Y-31251D01*
X53263Y-31203D01*
X53178Y-31081D01*
X53225Y-30966D01*
X53239Y-30930D01*
X53257Y-30887D01*
X53270Y-30857D01*
X53277Y-30843D01*
X53290Y-30839D01*
X53321Y-30831D01*
X53367Y-30822D01*
X53422Y-30812D01*
X53474Y-30802D01*
X53521Y-30793D01*
X53555Y-30787D01*
X53570Y-30784D01*
X53574Y-30781D01*
X53577Y-30774D01*
X53579Y-30758D01*
X53580Y-30729D01*
X53581Y-30684D01*
X53581Y-30619D01*
X53581Y-30612D01*
X53580Y-30550D01*
X53579Y-30501D01*
X53577Y-30469D01*
X53575Y-30456D01*
X53575Y-30456D01*
X53560Y-30452D01*
X53527Y-30445D01*
X53480Y-30436D01*
X53424Y-30425D01*
X53420Y-30425D01*
X53364Y-30414D01*
X53318Y-30404D01*
X53285Y-30397D01*
X53271Y-30392D01*
X53268Y-30388D01*
X53257Y-30366D01*
X53241Y-30332D01*
X53222Y-30290D01*
X53204Y-30246D01*
X53188Y-30206D01*
X53178Y-30177D01*
X53175Y-30163D01*
X53175Y-30163D01*
X53183Y-30150D01*
X53202Y-30121D01*
X53230Y-30081D01*
X53262Y-30033D01*
X53265Y-30029D01*
X53297Y-29982D01*
X53323Y-29942D01*
X53340Y-29914D01*
X53347Y-29901D01*
X53347Y-29900D01*
X53336Y-29886D01*
X53312Y-29859D01*
X53277Y-29823D01*
X53236Y-29782D01*
X53223Y-29769D01*
X53177Y-29724D01*
X53145Y-29695D01*
X53125Y-29679D01*
X53116Y-29675D01*
X53115Y-29676D01*
X53101Y-29684D01*
X53071Y-29704D01*
X53031Y-29731D01*
X52983Y-29764D01*
X52980Y-29766D01*
X52932Y-29798D01*
X52893Y-29825D01*
X52865Y-29843D01*
X52853Y-29850D01*
X52851Y-29850D01*
X52832Y-29845D01*
X52798Y-29833D01*
X52757Y-29817D01*
X52713Y-29800D01*
X52673Y-29783D01*
X52644Y-29769D01*
X52630Y-29761D01*
X52629Y-29761D01*
X52624Y-29744D01*
X52616Y-29708D01*
X52606Y-29660D01*
X52595Y-29602D01*
X52593Y-29593D01*
X52583Y-29536D01*
X52574Y-29490D01*
X52567Y-29458D01*
X52564Y-29444D01*
X52556Y-29443D01*
X52528Y-29441D01*
X52486Y-29439D01*
X52435Y-29439D01*
X52382Y-29439D01*
X52330Y-29440D01*
X52286Y-29442D01*
X52254Y-29444D01*
X52240Y-29447D01*
X52240Y-29448D01*
X52235Y-29465D01*
X52227Y-29500D01*
X52217Y-29549D01*
X52206Y-29607D01*
X52204Y-29618D01*
X52194Y-29674D01*
X52184Y-29720D01*
X52177Y-29751D01*
X52174Y-29764D01*
X52169Y-29766D01*
X52146Y-29777D01*
X52108Y-29792D01*
X52061Y-29811D01*
X51953Y-29855D01*
X51821Y-29764D01*
X51809Y-29756D01*
X51761Y-29723D01*
X51722Y-29697D01*
X51694Y-29680D01*
X51683Y-29673D01*
X51682Y-29674D01*
X51669Y-29685D01*
X51643Y-29710D01*
X51607Y-29745D01*
X51565Y-29786D01*
X51534Y-29817D01*
X51498Y-29854D01*
X51475Y-29879D01*
X51462Y-29895D01*
X51457Y-29905D01*
X51459Y-29912D01*
X51467Y-29925D01*
X51487Y-29954D01*
X51514Y-29995D01*
X51546Y-30041D01*
X51573Y-30081D01*
X51602Y-30125D01*
X51620Y-30157D01*
X51627Y-30172D01*
X51625Y-30179D01*
X51616Y-30205D01*
X51600Y-30244D01*
X51580Y-30291D01*
X51534Y-30396D01*
X51465Y-30409D01*
X51424Y-30417D01*
X51365Y-30428D01*
X51309Y-30439D01*
X51222Y-30456D01*
X51219Y-30775D01*
X51233Y-30781D01*
X51246Y-30785D01*
X51278Y-30792D01*
X51324Y-30801D01*
X51378Y-30811D01*
X51425Y-30820D01*
X51471Y-30829D01*
X51505Y-30835D01*
X51520Y-30838D01*
X51523Y-30843D01*
X51535Y-30866D01*
X51552Y-30902D01*
X51570Y-30945D01*
X51589Y-30990D01*
X51605Y-31031D01*
X51617Y-31063D01*
X51621Y-31079D01*
X51615Y-31091D01*
X51597Y-31119D01*
X51571Y-31158D01*
X51540Y-31204D01*
X51508Y-31251D01*
X51481Y-31290D01*
X51462Y-31319D01*
X51455Y-31332D01*
X51459Y-31341D01*
X51477Y-31363D01*
X51512Y-31399D01*
X51564Y-31451D01*
X51573Y-31459D01*
X51614Y-31499D01*
X51649Y-31531D01*
X51673Y-31553D01*
X51684Y-31561D01*
X51684Y-31561D01*
G37*
G54D12*
X70900Y-42000D03*
X70900Y-41000D03*
X70900Y-40000D03*
X70900Y-39000D03*
X70900Y-38000D03*
X70900Y-37000D03*
X70900Y-36000D03*
X70900Y-35000D03*
X70900Y-34000D03*
X70900Y-33000D03*
X70900Y-32000D03*
X70900Y-31000D03*
X63900Y-31000D03*
X63900Y-32000D03*
X63900Y-33000D03*
X63900Y-34000D03*
X63900Y-35000D03*
X63900Y-36000D03*
X63900Y-37000D03*
X63900Y-38000D03*
X63900Y-39000D03*
X63900Y-40000D03*
X63900Y-41000D03*
X63900Y-42000D03*
X69900Y-42000D03*
X69900Y-41000D03*
X69900Y-40000D03*
X69900Y-39000D03*
X69900Y-38000D03*
X69900Y-37000D03*
X69900Y-36000D03*
X69900Y-35000D03*
X69900Y-34000D03*
X69900Y-33000D03*
X69900Y-32000D03*
X69900Y-31000D03*
X64900Y-31000D03*
X64900Y-32000D03*
X64900Y-33000D03*
X64900Y-34000D03*
X64900Y-35000D03*
X64900Y-36000D03*
X64900Y-37000D03*
X64900Y-38000D03*
X64900Y-39000D03*
X64900Y-40000D03*
X64900Y-41000D03*
X64900Y-42000D03*
G54D13*
X52943Y-38602D03*
X52943Y-34603D03*
G54D14*
X47944Y-40098D03*
X43940Y-33107D03*
X46944Y-33107D03*
G54D15*
X37400Y-42500D03*
X37400Y-30500D03*
X73900Y-42500D03*
X73900Y-30500D03*
G54D16*
X57900Y-43000D03*
G54D12*
X56900Y-43000D03*
X55900Y-43000D03*
G54D16*
X60900Y-39500D03*
G54D12*
X59900Y-39500D03*
X59900Y-30500D03*
X60900Y-30500D03*
G54D16*
X56400Y-36500D03*
G54D12*
X56400Y-33500D03*
X57900Y-39500D03*
X56900Y-39500D03*
X56900Y-40500D03*
G54D16*
X56400Y-30500D03*
G54D12*
X57400Y-30500D03*
X40400Y-43500D03*
X40400Y-42500D03*
G54D17*
X37400Y-38500D03*
X37400Y-34500D03*
G54D18*
X40400Y-39250D03*
X40400Y-33750D03*
G54D16*
X59900Y-43000D03*
G54D12*
X60900Y-43000D03*
X60400Y-33500D03*
X60400Y-36500D03*
X61400Y-33500D03*
X61400Y-36500D03*
X59400Y-33500D03*
X59400Y-36500D03*
X58400Y-33500D03*
X58400Y-36500D03*
X57400Y-33500D03*
X57400Y-36500D03*
M02*
