G04 (created by PCBNEW (2013-07-07 BZR 4022)-stable) date Thu 15 Aug 2013 17:22:16 CST*
%MOIN*%
G04 Gerber Fmt 3.4, Leading zero omitted, Abs format*
%FSLAX34Y34*%
G01*
G70*
G90*
G04 APERTURE LIST*
%ADD10C,0.006*%
%ADD11C,0.0649*%
%ADD12C,0.121*%
%ADD13C,0.1181*%
%ADD14C,0.16*%
%ADD15R,0.06X0.06*%
%ADD16C,0.06*%
%ADD17R,0.055X0.055*%
%ADD18C,0.055*%
%ADD19R,0.066X0.066*%
%ADD20C,0.066*%
%ADD21C,0.17*%
%ADD22C,0.3*%
%ADD23C,0.0590551*%
%ADD24C,0.01*%
%ADD25C,0.2*%
G04 APERTURE END LIST*
G54D10*
G54D11*
X52943Y-38602D03*
X52943Y-34603D03*
G54D12*
X47944Y-40098D03*
G54D13*
X43940Y-33107D03*
X46944Y-33107D03*
G54D14*
X37400Y-42500D03*
X37400Y-30500D03*
X73900Y-42500D03*
X73900Y-30500D03*
G54D15*
X57900Y-43000D03*
G54D16*
X56900Y-43000D03*
X55900Y-43000D03*
G54D17*
X60900Y-39500D03*
G54D18*
X59900Y-39500D03*
G54D16*
X59900Y-30500D03*
X60900Y-30500D03*
G54D17*
X56400Y-36500D03*
G54D18*
X56400Y-33500D03*
X57900Y-39500D03*
X56900Y-39500D03*
X56900Y-40500D03*
G54D19*
X56400Y-30500D03*
G54D20*
X57400Y-30500D03*
G54D16*
X40400Y-43500D03*
X40400Y-42500D03*
G54D21*
X37400Y-38500D03*
X37400Y-34500D03*
G54D22*
X40400Y-39250D03*
X40400Y-33750D03*
G54D15*
X59900Y-43000D03*
G54D16*
X60900Y-43000D03*
G54D23*
X70900Y-42000D03*
X70900Y-41000D03*
X70900Y-40000D03*
X70900Y-39000D03*
X70900Y-38000D03*
X70900Y-37000D03*
X70900Y-36000D03*
X70900Y-35000D03*
X70900Y-34000D03*
X70900Y-33000D03*
X70900Y-32000D03*
X70900Y-31000D03*
X63900Y-31000D03*
X63900Y-32000D03*
X63900Y-33000D03*
X63900Y-34000D03*
X63900Y-35000D03*
X63900Y-36000D03*
X63900Y-37000D03*
X63900Y-38000D03*
X63900Y-39000D03*
X63900Y-40000D03*
X63900Y-41000D03*
X63900Y-42000D03*
G54D18*
X60400Y-33500D03*
X60400Y-36500D03*
X61400Y-33500D03*
X61400Y-36500D03*
X59400Y-33500D03*
X59400Y-36500D03*
X58400Y-33500D03*
X58400Y-36500D03*
X57400Y-33500D03*
X57400Y-36500D03*
G54D24*
X56400Y-36500D02*
X56300Y-36500D01*
X58500Y-41600D02*
X59900Y-43000D01*
X56400Y-41600D02*
X58500Y-41600D01*
X55300Y-40500D02*
X56400Y-41600D01*
X55300Y-37500D02*
X55300Y-40500D01*
X56300Y-36500D02*
X55300Y-37500D01*
X56400Y-30500D02*
X55300Y-31600D01*
X55300Y-35400D02*
X56400Y-36500D01*
X55300Y-31600D02*
X55300Y-35400D01*
X70900Y-31000D02*
X64800Y-31000D01*
X54900Y-42000D02*
X55900Y-43000D01*
X54900Y-30500D02*
X54900Y-42000D01*
X55700Y-29700D02*
X54900Y-30500D01*
X63500Y-29700D02*
X55700Y-29700D01*
X64800Y-31000D02*
X63500Y-29700D01*
X63900Y-43000D02*
X65900Y-41000D01*
X63900Y-39000D02*
X59900Y-39000D01*
X59900Y-39000D02*
X59900Y-37000D01*
X70900Y-41000D02*
X65900Y-41000D01*
X65900Y-41000D02*
X63900Y-39000D01*
X60900Y-43000D02*
X63900Y-43000D01*
X59400Y-36500D02*
X59900Y-37000D01*
X59900Y-39500D02*
X59900Y-39000D01*
X59900Y-37000D02*
X60400Y-36500D01*
X59900Y-39500D02*
X57900Y-39500D01*
G54D25*
X40400Y-33750D02*
X40750Y-33750D01*
X46944Y-33956D02*
X46944Y-33107D01*
X45100Y-35800D02*
X46944Y-33956D01*
X42800Y-35800D02*
X45100Y-35800D01*
X40750Y-33750D02*
X42800Y-35800D01*
X47096Y-39250D02*
X47944Y-40098D01*
X40400Y-39250D02*
X47096Y-39250D01*
G54D10*
G36*
X71850Y-43730D02*
X71445Y-43730D01*
X71445Y-41892D01*
X71445Y-39892D01*
X71362Y-39691D01*
X71209Y-39538D01*
X71117Y-39500D01*
X71208Y-39462D01*
X71361Y-39309D01*
X71445Y-39108D01*
X71445Y-38892D01*
X71362Y-38691D01*
X71209Y-38538D01*
X71117Y-38500D01*
X71208Y-38462D01*
X71361Y-38309D01*
X71445Y-38108D01*
X71445Y-37892D01*
X71362Y-37691D01*
X71209Y-37538D01*
X71117Y-37500D01*
X71208Y-37462D01*
X71361Y-37309D01*
X71445Y-37108D01*
X71445Y-36892D01*
X71362Y-36691D01*
X71209Y-36538D01*
X71117Y-36500D01*
X71208Y-36462D01*
X71361Y-36309D01*
X71445Y-36108D01*
X71445Y-35892D01*
X71362Y-35691D01*
X71209Y-35538D01*
X71117Y-35500D01*
X71208Y-35462D01*
X71361Y-35309D01*
X71445Y-35108D01*
X71445Y-34892D01*
X71362Y-34691D01*
X71209Y-34538D01*
X71117Y-34500D01*
X71208Y-34462D01*
X71361Y-34309D01*
X71445Y-34108D01*
X71445Y-33892D01*
X71362Y-33691D01*
X71209Y-33538D01*
X71117Y-33500D01*
X71208Y-33462D01*
X71361Y-33309D01*
X71445Y-33108D01*
X71445Y-32892D01*
X71362Y-32691D01*
X71209Y-32538D01*
X71117Y-32500D01*
X71208Y-32462D01*
X71361Y-32309D01*
X71445Y-32108D01*
X71445Y-31892D01*
X71362Y-31691D01*
X71209Y-31538D01*
X71117Y-31500D01*
X71208Y-31462D01*
X71361Y-31309D01*
X71445Y-31108D01*
X71445Y-30892D01*
X71362Y-30691D01*
X71209Y-30538D01*
X71008Y-30454D01*
X70792Y-30454D01*
X70591Y-30537D01*
X70438Y-30690D01*
X70434Y-30700D01*
X64924Y-30700D01*
X63712Y-29487D01*
X63614Y-29422D01*
X63500Y-29400D01*
X55700Y-29400D01*
X55585Y-29422D01*
X55487Y-29487D01*
X54687Y-30287D01*
X54622Y-30385D01*
X54600Y-30500D01*
X54600Y-42000D01*
X54622Y-42114D01*
X54687Y-42212D01*
X55354Y-42878D01*
X55350Y-42890D01*
X55349Y-43108D01*
X55433Y-43311D01*
X55588Y-43465D01*
X55790Y-43549D01*
X56008Y-43550D01*
X56211Y-43466D01*
X56365Y-43311D01*
X56399Y-43230D01*
X56433Y-43311D01*
X56588Y-43465D01*
X56790Y-43549D01*
X57008Y-43550D01*
X57211Y-43466D01*
X57349Y-43327D01*
X57349Y-43349D01*
X57387Y-43441D01*
X57458Y-43511D01*
X57550Y-43549D01*
X57649Y-43550D01*
X58249Y-43550D01*
X58341Y-43512D01*
X58411Y-43441D01*
X58449Y-43349D01*
X58450Y-43250D01*
X58450Y-42650D01*
X58412Y-42558D01*
X58341Y-42488D01*
X58249Y-42450D01*
X58150Y-42449D01*
X57550Y-42449D01*
X57458Y-42487D01*
X57388Y-42558D01*
X57350Y-42650D01*
X57350Y-42672D01*
X57211Y-42534D01*
X57009Y-42450D01*
X56791Y-42449D01*
X56588Y-42533D01*
X56434Y-42688D01*
X56400Y-42769D01*
X56366Y-42688D01*
X56211Y-42534D01*
X56009Y-42450D01*
X55791Y-42449D01*
X55779Y-42454D01*
X55200Y-41875D01*
X55200Y-40824D01*
X56187Y-41812D01*
X56187Y-41812D01*
X56285Y-41877D01*
X56400Y-41900D01*
X58375Y-41900D01*
X59349Y-42874D01*
X59349Y-43349D01*
X59387Y-43441D01*
X59458Y-43511D01*
X59550Y-43549D01*
X59649Y-43550D01*
X60249Y-43550D01*
X60341Y-43512D01*
X60411Y-43441D01*
X60449Y-43349D01*
X60450Y-43250D01*
X60450Y-42650D01*
X60412Y-42558D01*
X60341Y-42488D01*
X60249Y-42450D01*
X60150Y-42449D01*
X59774Y-42449D01*
X58712Y-41387D01*
X58614Y-41322D01*
X58500Y-41300D01*
X57425Y-41300D01*
X57425Y-40396D01*
X57345Y-40203D01*
X57197Y-40055D01*
X57064Y-39999D01*
X57197Y-39945D01*
X57344Y-39797D01*
X57424Y-39604D01*
X57425Y-39396D01*
X57345Y-39203D01*
X57197Y-39055D01*
X57004Y-38975D01*
X56796Y-38974D01*
X56603Y-39054D01*
X56455Y-39202D01*
X56375Y-39395D01*
X56374Y-39603D01*
X56454Y-39797D01*
X56602Y-39944D01*
X56735Y-40000D01*
X56603Y-40054D01*
X56455Y-40202D01*
X56375Y-40395D01*
X56374Y-40603D01*
X56454Y-40797D01*
X56602Y-40944D01*
X56795Y-41024D01*
X57003Y-41025D01*
X57197Y-40945D01*
X57344Y-40797D01*
X57424Y-40604D01*
X57425Y-40396D01*
X57425Y-41300D01*
X56524Y-41300D01*
X55600Y-40375D01*
X55600Y-37624D01*
X56199Y-37025D01*
X56724Y-37025D01*
X56816Y-36987D01*
X56886Y-36916D01*
X56924Y-36824D01*
X56925Y-36725D01*
X56925Y-36725D01*
X56954Y-36797D01*
X57102Y-36944D01*
X57295Y-37024D01*
X57503Y-37025D01*
X57697Y-36945D01*
X57844Y-36797D01*
X57900Y-36664D01*
X57954Y-36797D01*
X58102Y-36944D01*
X58295Y-37024D01*
X58503Y-37025D01*
X58697Y-36945D01*
X58844Y-36797D01*
X58924Y-36604D01*
X58925Y-36396D01*
X58845Y-36203D01*
X58697Y-36055D01*
X58504Y-35975D01*
X58296Y-35974D01*
X58103Y-36054D01*
X57955Y-36202D01*
X57899Y-36335D01*
X57845Y-36203D01*
X57697Y-36055D01*
X57504Y-35975D01*
X57296Y-35974D01*
X57103Y-36054D01*
X56955Y-36202D01*
X56925Y-36274D01*
X56925Y-36175D01*
X56887Y-36083D01*
X56816Y-36013D01*
X56724Y-35975D01*
X56625Y-35974D01*
X56299Y-35974D01*
X55600Y-35275D01*
X55600Y-31724D01*
X56244Y-31080D01*
X56779Y-31080D01*
X56871Y-31042D01*
X56941Y-30971D01*
X56974Y-30894D01*
X57071Y-30991D01*
X57284Y-31079D01*
X57514Y-31080D01*
X57728Y-30991D01*
X57891Y-30828D01*
X57979Y-30615D01*
X57980Y-30385D01*
X57891Y-30171D01*
X57728Y-30008D01*
X57708Y-30000D01*
X59669Y-30000D01*
X59588Y-30033D01*
X59434Y-30188D01*
X59350Y-30390D01*
X59349Y-30608D01*
X59433Y-30811D01*
X59588Y-30965D01*
X59790Y-31049D01*
X60008Y-31050D01*
X60211Y-30966D01*
X60365Y-30811D01*
X60399Y-30730D01*
X60433Y-30811D01*
X60588Y-30965D01*
X60790Y-31049D01*
X61008Y-31050D01*
X61211Y-30966D01*
X61365Y-30811D01*
X61449Y-30609D01*
X61450Y-30391D01*
X61366Y-30188D01*
X61211Y-30034D01*
X61130Y-30000D01*
X63375Y-30000D01*
X63830Y-30454D01*
X63792Y-30454D01*
X63591Y-30537D01*
X63438Y-30690D01*
X63354Y-30891D01*
X63354Y-31107D01*
X63437Y-31308D01*
X63590Y-31461D01*
X63682Y-31499D01*
X63591Y-31537D01*
X63438Y-31690D01*
X63354Y-31891D01*
X63354Y-32107D01*
X63437Y-32308D01*
X63590Y-32461D01*
X63682Y-32499D01*
X63591Y-32537D01*
X63438Y-32690D01*
X63354Y-32891D01*
X63354Y-33107D01*
X63437Y-33308D01*
X63590Y-33461D01*
X63682Y-33499D01*
X63591Y-33537D01*
X63438Y-33690D01*
X63354Y-33891D01*
X63354Y-34107D01*
X63437Y-34308D01*
X63590Y-34461D01*
X63682Y-34499D01*
X63591Y-34537D01*
X63438Y-34690D01*
X63354Y-34891D01*
X63354Y-35107D01*
X63437Y-35308D01*
X63590Y-35461D01*
X63682Y-35499D01*
X63591Y-35537D01*
X63438Y-35690D01*
X63354Y-35891D01*
X63354Y-36107D01*
X63437Y-36308D01*
X63590Y-36461D01*
X63682Y-36499D01*
X63591Y-36537D01*
X63438Y-36690D01*
X63354Y-36891D01*
X63354Y-37107D01*
X63437Y-37308D01*
X63590Y-37461D01*
X63682Y-37499D01*
X63591Y-37537D01*
X63438Y-37690D01*
X63354Y-37891D01*
X63354Y-38107D01*
X63437Y-38308D01*
X63590Y-38461D01*
X63791Y-38545D01*
X64007Y-38545D01*
X64208Y-38462D01*
X64361Y-38309D01*
X64445Y-38108D01*
X64445Y-37892D01*
X64362Y-37691D01*
X64209Y-37538D01*
X64117Y-37500D01*
X64208Y-37462D01*
X64361Y-37309D01*
X64445Y-37108D01*
X64445Y-36892D01*
X64362Y-36691D01*
X64209Y-36538D01*
X64117Y-36500D01*
X64208Y-36462D01*
X64361Y-36309D01*
X64445Y-36108D01*
X64445Y-35892D01*
X64362Y-35691D01*
X64209Y-35538D01*
X64117Y-35500D01*
X64208Y-35462D01*
X64361Y-35309D01*
X64445Y-35108D01*
X64445Y-34892D01*
X64362Y-34691D01*
X64209Y-34538D01*
X64117Y-34500D01*
X64208Y-34462D01*
X64361Y-34309D01*
X64445Y-34108D01*
X64445Y-33892D01*
X64362Y-33691D01*
X64209Y-33538D01*
X64117Y-33500D01*
X64208Y-33462D01*
X64361Y-33309D01*
X64445Y-33108D01*
X64445Y-32892D01*
X64362Y-32691D01*
X64209Y-32538D01*
X64117Y-32500D01*
X64208Y-32462D01*
X64361Y-32309D01*
X64445Y-32108D01*
X64445Y-31892D01*
X64362Y-31691D01*
X64209Y-31538D01*
X64117Y-31500D01*
X64208Y-31462D01*
X64361Y-31309D01*
X64445Y-31108D01*
X64445Y-31069D01*
X64587Y-31212D01*
X64685Y-31277D01*
X64800Y-31300D01*
X70433Y-31300D01*
X70437Y-31308D01*
X70590Y-31461D01*
X70682Y-31499D01*
X70591Y-31537D01*
X70438Y-31690D01*
X70354Y-31891D01*
X70354Y-32107D01*
X70437Y-32308D01*
X70590Y-32461D01*
X70682Y-32499D01*
X70591Y-32537D01*
X70438Y-32690D01*
X70354Y-32891D01*
X70354Y-33107D01*
X70437Y-33308D01*
X70590Y-33461D01*
X70682Y-33499D01*
X70591Y-33537D01*
X70438Y-33690D01*
X70354Y-33891D01*
X70354Y-34107D01*
X70437Y-34308D01*
X70590Y-34461D01*
X70682Y-34499D01*
X70591Y-34537D01*
X70438Y-34690D01*
X70354Y-34891D01*
X70354Y-35107D01*
X70437Y-35308D01*
X70590Y-35461D01*
X70682Y-35499D01*
X70591Y-35537D01*
X70438Y-35690D01*
X70354Y-35891D01*
X70354Y-36107D01*
X70437Y-36308D01*
X70590Y-36461D01*
X70682Y-36499D01*
X70591Y-36537D01*
X70438Y-36690D01*
X70354Y-36891D01*
X70354Y-37107D01*
X70437Y-37308D01*
X70590Y-37461D01*
X70682Y-37499D01*
X70591Y-37537D01*
X70438Y-37690D01*
X70354Y-37891D01*
X70354Y-38107D01*
X70437Y-38308D01*
X70590Y-38461D01*
X70682Y-38499D01*
X70591Y-38537D01*
X70438Y-38690D01*
X70354Y-38891D01*
X70354Y-39107D01*
X70437Y-39308D01*
X70590Y-39461D01*
X70682Y-39499D01*
X70591Y-39537D01*
X70438Y-39690D01*
X70354Y-39891D01*
X70354Y-40107D01*
X70437Y-40308D01*
X70590Y-40461D01*
X70791Y-40545D01*
X71007Y-40545D01*
X71208Y-40462D01*
X71361Y-40309D01*
X71445Y-40108D01*
X71445Y-39892D01*
X71445Y-41892D01*
X71362Y-41691D01*
X71209Y-41538D01*
X71008Y-41454D01*
X70792Y-41454D01*
X70591Y-41537D01*
X70438Y-41690D01*
X70354Y-41891D01*
X70354Y-42107D01*
X70437Y-42308D01*
X70590Y-42461D01*
X70791Y-42545D01*
X71007Y-42545D01*
X71208Y-42462D01*
X71361Y-42309D01*
X71445Y-42108D01*
X71445Y-41892D01*
X71445Y-43730D01*
X64445Y-43730D01*
X64445Y-41892D01*
X64362Y-41691D01*
X64209Y-41538D01*
X64117Y-41500D01*
X64208Y-41462D01*
X64361Y-41309D01*
X64445Y-41108D01*
X64445Y-40892D01*
X64362Y-40691D01*
X64209Y-40538D01*
X64117Y-40500D01*
X64208Y-40462D01*
X64361Y-40309D01*
X64445Y-40108D01*
X64445Y-39892D01*
X64362Y-39691D01*
X64209Y-39538D01*
X64008Y-39454D01*
X63792Y-39454D01*
X63591Y-39537D01*
X63438Y-39690D01*
X63354Y-39891D01*
X63354Y-40107D01*
X63437Y-40308D01*
X63590Y-40461D01*
X63682Y-40499D01*
X63591Y-40537D01*
X63438Y-40690D01*
X63354Y-40891D01*
X63354Y-41107D01*
X63437Y-41308D01*
X63590Y-41461D01*
X63682Y-41499D01*
X63591Y-41537D01*
X63438Y-41690D01*
X63354Y-41891D01*
X63354Y-42107D01*
X63437Y-42308D01*
X63590Y-42461D01*
X63791Y-42545D01*
X64007Y-42545D01*
X64208Y-42462D01*
X64361Y-42309D01*
X64445Y-42108D01*
X64445Y-41892D01*
X64445Y-43730D01*
X61925Y-43730D01*
X61925Y-36396D01*
X61925Y-33396D01*
X61845Y-33203D01*
X61697Y-33055D01*
X61504Y-32975D01*
X61296Y-32974D01*
X61103Y-33054D01*
X60955Y-33202D01*
X60899Y-33335D01*
X60845Y-33203D01*
X60697Y-33055D01*
X60504Y-32975D01*
X60296Y-32974D01*
X60103Y-33054D01*
X59955Y-33202D01*
X59899Y-33335D01*
X59845Y-33203D01*
X59697Y-33055D01*
X59504Y-32975D01*
X59296Y-32974D01*
X59103Y-33054D01*
X58955Y-33202D01*
X58899Y-33335D01*
X58845Y-33203D01*
X58697Y-33055D01*
X58504Y-32975D01*
X58296Y-32974D01*
X58103Y-33054D01*
X57955Y-33202D01*
X57899Y-33335D01*
X57845Y-33203D01*
X57697Y-33055D01*
X57504Y-32975D01*
X57296Y-32974D01*
X57103Y-33054D01*
X56955Y-33202D01*
X56899Y-33335D01*
X56845Y-33203D01*
X56697Y-33055D01*
X56504Y-32975D01*
X56296Y-32974D01*
X56103Y-33054D01*
X55955Y-33202D01*
X55875Y-33395D01*
X55874Y-33603D01*
X55954Y-33797D01*
X56102Y-33944D01*
X56295Y-34024D01*
X56503Y-34025D01*
X56697Y-33945D01*
X56844Y-33797D01*
X56900Y-33664D01*
X56954Y-33797D01*
X57102Y-33944D01*
X57295Y-34024D01*
X57503Y-34025D01*
X57697Y-33945D01*
X57844Y-33797D01*
X57900Y-33664D01*
X57954Y-33797D01*
X58102Y-33944D01*
X58295Y-34024D01*
X58503Y-34025D01*
X58697Y-33945D01*
X58844Y-33797D01*
X58900Y-33664D01*
X58954Y-33797D01*
X59102Y-33944D01*
X59295Y-34024D01*
X59503Y-34025D01*
X59697Y-33945D01*
X59844Y-33797D01*
X59900Y-33664D01*
X59954Y-33797D01*
X60102Y-33944D01*
X60295Y-34024D01*
X60503Y-34025D01*
X60697Y-33945D01*
X60844Y-33797D01*
X60900Y-33664D01*
X60954Y-33797D01*
X61102Y-33944D01*
X61295Y-34024D01*
X61503Y-34025D01*
X61697Y-33945D01*
X61844Y-33797D01*
X61924Y-33604D01*
X61925Y-33396D01*
X61925Y-36396D01*
X61845Y-36203D01*
X61697Y-36055D01*
X61504Y-35975D01*
X61296Y-35974D01*
X61103Y-36054D01*
X60955Y-36202D01*
X60875Y-36395D01*
X60874Y-36603D01*
X60954Y-36797D01*
X61102Y-36944D01*
X61295Y-37024D01*
X61503Y-37025D01*
X61697Y-36945D01*
X61844Y-36797D01*
X61924Y-36604D01*
X61925Y-36396D01*
X61925Y-43730D01*
X61425Y-43730D01*
X61425Y-39725D01*
X61425Y-39175D01*
X61387Y-39083D01*
X61316Y-39013D01*
X61224Y-38975D01*
X61125Y-38974D01*
X60575Y-38974D01*
X60483Y-39012D01*
X60413Y-39083D01*
X60375Y-39175D01*
X60374Y-39274D01*
X60374Y-39824D01*
X60412Y-39916D01*
X60483Y-39986D01*
X60575Y-40024D01*
X60674Y-40025D01*
X61224Y-40025D01*
X61316Y-39987D01*
X61386Y-39916D01*
X61424Y-39824D01*
X61425Y-39725D01*
X61425Y-43730D01*
X54450Y-43730D01*
X54450Y-29269D01*
X71850Y-29269D01*
X71850Y-43730D01*
X71850Y-43730D01*
G37*
G54D24*
X71850Y-43730D02*
X71445Y-43730D01*
X71445Y-41892D01*
X71445Y-39892D01*
X71362Y-39691D01*
X71209Y-39538D01*
X71117Y-39500D01*
X71208Y-39462D01*
X71361Y-39309D01*
X71445Y-39108D01*
X71445Y-38892D01*
X71362Y-38691D01*
X71209Y-38538D01*
X71117Y-38500D01*
X71208Y-38462D01*
X71361Y-38309D01*
X71445Y-38108D01*
X71445Y-37892D01*
X71362Y-37691D01*
X71209Y-37538D01*
X71117Y-37500D01*
X71208Y-37462D01*
X71361Y-37309D01*
X71445Y-37108D01*
X71445Y-36892D01*
X71362Y-36691D01*
X71209Y-36538D01*
X71117Y-36500D01*
X71208Y-36462D01*
X71361Y-36309D01*
X71445Y-36108D01*
X71445Y-35892D01*
X71362Y-35691D01*
X71209Y-35538D01*
X71117Y-35500D01*
X71208Y-35462D01*
X71361Y-35309D01*
X71445Y-35108D01*
X71445Y-34892D01*
X71362Y-34691D01*
X71209Y-34538D01*
X71117Y-34500D01*
X71208Y-34462D01*
X71361Y-34309D01*
X71445Y-34108D01*
X71445Y-33892D01*
X71362Y-33691D01*
X71209Y-33538D01*
X71117Y-33500D01*
X71208Y-33462D01*
X71361Y-33309D01*
X71445Y-33108D01*
X71445Y-32892D01*
X71362Y-32691D01*
X71209Y-32538D01*
X71117Y-32500D01*
X71208Y-32462D01*
X71361Y-32309D01*
X71445Y-32108D01*
X71445Y-31892D01*
X71362Y-31691D01*
X71209Y-31538D01*
X71117Y-31500D01*
X71208Y-31462D01*
X71361Y-31309D01*
X71445Y-31108D01*
X71445Y-30892D01*
X71362Y-30691D01*
X71209Y-30538D01*
X71008Y-30454D01*
X70792Y-30454D01*
X70591Y-30537D01*
X70438Y-30690D01*
X70434Y-30700D01*
X64924Y-30700D01*
X63712Y-29487D01*
X63614Y-29422D01*
X63500Y-29400D01*
X55700Y-29400D01*
X55585Y-29422D01*
X55487Y-29487D01*
X54687Y-30287D01*
X54622Y-30385D01*
X54600Y-30500D01*
X54600Y-42000D01*
X54622Y-42114D01*
X54687Y-42212D01*
X55354Y-42878D01*
X55350Y-42890D01*
X55349Y-43108D01*
X55433Y-43311D01*
X55588Y-43465D01*
X55790Y-43549D01*
X56008Y-43550D01*
X56211Y-43466D01*
X56365Y-43311D01*
X56399Y-43230D01*
X56433Y-43311D01*
X56588Y-43465D01*
X56790Y-43549D01*
X57008Y-43550D01*
X57211Y-43466D01*
X57349Y-43327D01*
X57349Y-43349D01*
X57387Y-43441D01*
X57458Y-43511D01*
X57550Y-43549D01*
X57649Y-43550D01*
X58249Y-43550D01*
X58341Y-43512D01*
X58411Y-43441D01*
X58449Y-43349D01*
X58450Y-43250D01*
X58450Y-42650D01*
X58412Y-42558D01*
X58341Y-42488D01*
X58249Y-42450D01*
X58150Y-42449D01*
X57550Y-42449D01*
X57458Y-42487D01*
X57388Y-42558D01*
X57350Y-42650D01*
X57350Y-42672D01*
X57211Y-42534D01*
X57009Y-42450D01*
X56791Y-42449D01*
X56588Y-42533D01*
X56434Y-42688D01*
X56400Y-42769D01*
X56366Y-42688D01*
X56211Y-42534D01*
X56009Y-42450D01*
X55791Y-42449D01*
X55779Y-42454D01*
X55200Y-41875D01*
X55200Y-40824D01*
X56187Y-41812D01*
X56187Y-41812D01*
X56285Y-41877D01*
X56400Y-41900D01*
X58375Y-41900D01*
X59349Y-42874D01*
X59349Y-43349D01*
X59387Y-43441D01*
X59458Y-43511D01*
X59550Y-43549D01*
X59649Y-43550D01*
X60249Y-43550D01*
X60341Y-43512D01*
X60411Y-43441D01*
X60449Y-43349D01*
X60450Y-43250D01*
X60450Y-42650D01*
X60412Y-42558D01*
X60341Y-42488D01*
X60249Y-42450D01*
X60150Y-42449D01*
X59774Y-42449D01*
X58712Y-41387D01*
X58614Y-41322D01*
X58500Y-41300D01*
X57425Y-41300D01*
X57425Y-40396D01*
X57345Y-40203D01*
X57197Y-40055D01*
X57064Y-39999D01*
X57197Y-39945D01*
X57344Y-39797D01*
X57424Y-39604D01*
X57425Y-39396D01*
X57345Y-39203D01*
X57197Y-39055D01*
X57004Y-38975D01*
X56796Y-38974D01*
X56603Y-39054D01*
X56455Y-39202D01*
X56375Y-39395D01*
X56374Y-39603D01*
X56454Y-39797D01*
X56602Y-39944D01*
X56735Y-40000D01*
X56603Y-40054D01*
X56455Y-40202D01*
X56375Y-40395D01*
X56374Y-40603D01*
X56454Y-40797D01*
X56602Y-40944D01*
X56795Y-41024D01*
X57003Y-41025D01*
X57197Y-40945D01*
X57344Y-40797D01*
X57424Y-40604D01*
X57425Y-40396D01*
X57425Y-41300D01*
X56524Y-41300D01*
X55600Y-40375D01*
X55600Y-37624D01*
X56199Y-37025D01*
X56724Y-37025D01*
X56816Y-36987D01*
X56886Y-36916D01*
X56924Y-36824D01*
X56925Y-36725D01*
X56925Y-36725D01*
X56954Y-36797D01*
X57102Y-36944D01*
X57295Y-37024D01*
X57503Y-37025D01*
X57697Y-36945D01*
X57844Y-36797D01*
X57900Y-36664D01*
X57954Y-36797D01*
X58102Y-36944D01*
X58295Y-37024D01*
X58503Y-37025D01*
X58697Y-36945D01*
X58844Y-36797D01*
X58924Y-36604D01*
X58925Y-36396D01*
X58845Y-36203D01*
X58697Y-36055D01*
X58504Y-35975D01*
X58296Y-35974D01*
X58103Y-36054D01*
X57955Y-36202D01*
X57899Y-36335D01*
X57845Y-36203D01*
X57697Y-36055D01*
X57504Y-35975D01*
X57296Y-35974D01*
X57103Y-36054D01*
X56955Y-36202D01*
X56925Y-36274D01*
X56925Y-36175D01*
X56887Y-36083D01*
X56816Y-36013D01*
X56724Y-35975D01*
X56625Y-35974D01*
X56299Y-35974D01*
X55600Y-35275D01*
X55600Y-31724D01*
X56244Y-31080D01*
X56779Y-31080D01*
X56871Y-31042D01*
X56941Y-30971D01*
X56974Y-30894D01*
X57071Y-30991D01*
X57284Y-31079D01*
X57514Y-31080D01*
X57728Y-30991D01*
X57891Y-30828D01*
X57979Y-30615D01*
X57980Y-30385D01*
X57891Y-30171D01*
X57728Y-30008D01*
X57708Y-30000D01*
X59669Y-30000D01*
X59588Y-30033D01*
X59434Y-30188D01*
X59350Y-30390D01*
X59349Y-30608D01*
X59433Y-30811D01*
X59588Y-30965D01*
X59790Y-31049D01*
X60008Y-31050D01*
X60211Y-30966D01*
X60365Y-30811D01*
X60399Y-30730D01*
X60433Y-30811D01*
X60588Y-30965D01*
X60790Y-31049D01*
X61008Y-31050D01*
X61211Y-30966D01*
X61365Y-30811D01*
X61449Y-30609D01*
X61450Y-30391D01*
X61366Y-30188D01*
X61211Y-30034D01*
X61130Y-30000D01*
X63375Y-30000D01*
X63830Y-30454D01*
X63792Y-30454D01*
X63591Y-30537D01*
X63438Y-30690D01*
X63354Y-30891D01*
X63354Y-31107D01*
X63437Y-31308D01*
X63590Y-31461D01*
X63682Y-31499D01*
X63591Y-31537D01*
X63438Y-31690D01*
X63354Y-31891D01*
X63354Y-32107D01*
X63437Y-32308D01*
X63590Y-32461D01*
X63682Y-32499D01*
X63591Y-32537D01*
X63438Y-32690D01*
X63354Y-32891D01*
X63354Y-33107D01*
X63437Y-33308D01*
X63590Y-33461D01*
X63682Y-33499D01*
X63591Y-33537D01*
X63438Y-33690D01*
X63354Y-33891D01*
X63354Y-34107D01*
X63437Y-34308D01*
X63590Y-34461D01*
X63682Y-34499D01*
X63591Y-34537D01*
X63438Y-34690D01*
X63354Y-34891D01*
X63354Y-35107D01*
X63437Y-35308D01*
X63590Y-35461D01*
X63682Y-35499D01*
X63591Y-35537D01*
X63438Y-35690D01*
X63354Y-35891D01*
X63354Y-36107D01*
X63437Y-36308D01*
X63590Y-36461D01*
X63682Y-36499D01*
X63591Y-36537D01*
X63438Y-36690D01*
X63354Y-36891D01*
X63354Y-37107D01*
X63437Y-37308D01*
X63590Y-37461D01*
X63682Y-37499D01*
X63591Y-37537D01*
X63438Y-37690D01*
X63354Y-37891D01*
X63354Y-38107D01*
X63437Y-38308D01*
X63590Y-38461D01*
X63791Y-38545D01*
X64007Y-38545D01*
X64208Y-38462D01*
X64361Y-38309D01*
X64445Y-38108D01*
X64445Y-37892D01*
X64362Y-37691D01*
X64209Y-37538D01*
X64117Y-37500D01*
X64208Y-37462D01*
X64361Y-37309D01*
X64445Y-37108D01*
X64445Y-36892D01*
X64362Y-36691D01*
X64209Y-36538D01*
X64117Y-36500D01*
X64208Y-36462D01*
X64361Y-36309D01*
X64445Y-36108D01*
X64445Y-35892D01*
X64362Y-35691D01*
X64209Y-35538D01*
X64117Y-35500D01*
X64208Y-35462D01*
X64361Y-35309D01*
X64445Y-35108D01*
X64445Y-34892D01*
X64362Y-34691D01*
X64209Y-34538D01*
X64117Y-34500D01*
X64208Y-34462D01*
X64361Y-34309D01*
X64445Y-34108D01*
X64445Y-33892D01*
X64362Y-33691D01*
X64209Y-33538D01*
X64117Y-33500D01*
X64208Y-33462D01*
X64361Y-33309D01*
X64445Y-33108D01*
X64445Y-32892D01*
X64362Y-32691D01*
X64209Y-32538D01*
X64117Y-32500D01*
X64208Y-32462D01*
X64361Y-32309D01*
X64445Y-32108D01*
X64445Y-31892D01*
X64362Y-31691D01*
X64209Y-31538D01*
X64117Y-31500D01*
X64208Y-31462D01*
X64361Y-31309D01*
X64445Y-31108D01*
X64445Y-31069D01*
X64587Y-31212D01*
X64685Y-31277D01*
X64800Y-31300D01*
X70433Y-31300D01*
X70437Y-31308D01*
X70590Y-31461D01*
X70682Y-31499D01*
X70591Y-31537D01*
X70438Y-31690D01*
X70354Y-31891D01*
X70354Y-32107D01*
X70437Y-32308D01*
X70590Y-32461D01*
X70682Y-32499D01*
X70591Y-32537D01*
X70438Y-32690D01*
X70354Y-32891D01*
X70354Y-33107D01*
X70437Y-33308D01*
X70590Y-33461D01*
X70682Y-33499D01*
X70591Y-33537D01*
X70438Y-33690D01*
X70354Y-33891D01*
X70354Y-34107D01*
X70437Y-34308D01*
X70590Y-34461D01*
X70682Y-34499D01*
X70591Y-34537D01*
X70438Y-34690D01*
X70354Y-34891D01*
X70354Y-35107D01*
X70437Y-35308D01*
X70590Y-35461D01*
X70682Y-35499D01*
X70591Y-35537D01*
X70438Y-35690D01*
X70354Y-35891D01*
X70354Y-36107D01*
X70437Y-36308D01*
X70590Y-36461D01*
X70682Y-36499D01*
X70591Y-36537D01*
X70438Y-36690D01*
X70354Y-36891D01*
X70354Y-37107D01*
X70437Y-37308D01*
X70590Y-37461D01*
X70682Y-37499D01*
X70591Y-37537D01*
X70438Y-37690D01*
X70354Y-37891D01*
X70354Y-38107D01*
X70437Y-38308D01*
X70590Y-38461D01*
X70682Y-38499D01*
X70591Y-38537D01*
X70438Y-38690D01*
X70354Y-38891D01*
X70354Y-39107D01*
X70437Y-39308D01*
X70590Y-39461D01*
X70682Y-39499D01*
X70591Y-39537D01*
X70438Y-39690D01*
X70354Y-39891D01*
X70354Y-40107D01*
X70437Y-40308D01*
X70590Y-40461D01*
X70791Y-40545D01*
X71007Y-40545D01*
X71208Y-40462D01*
X71361Y-40309D01*
X71445Y-40108D01*
X71445Y-39892D01*
X71445Y-41892D01*
X71362Y-41691D01*
X71209Y-41538D01*
X71008Y-41454D01*
X70792Y-41454D01*
X70591Y-41537D01*
X70438Y-41690D01*
X70354Y-41891D01*
X70354Y-42107D01*
X70437Y-42308D01*
X70590Y-42461D01*
X70791Y-42545D01*
X71007Y-42545D01*
X71208Y-42462D01*
X71361Y-42309D01*
X71445Y-42108D01*
X71445Y-41892D01*
X71445Y-43730D01*
X64445Y-43730D01*
X64445Y-41892D01*
X64362Y-41691D01*
X64209Y-41538D01*
X64117Y-41500D01*
X64208Y-41462D01*
X64361Y-41309D01*
X64445Y-41108D01*
X64445Y-40892D01*
X64362Y-40691D01*
X64209Y-40538D01*
X64117Y-40500D01*
X64208Y-40462D01*
X64361Y-40309D01*
X64445Y-40108D01*
X64445Y-39892D01*
X64362Y-39691D01*
X64209Y-39538D01*
X64008Y-39454D01*
X63792Y-39454D01*
X63591Y-39537D01*
X63438Y-39690D01*
X63354Y-39891D01*
X63354Y-40107D01*
X63437Y-40308D01*
X63590Y-40461D01*
X63682Y-40499D01*
X63591Y-40537D01*
X63438Y-40690D01*
X63354Y-40891D01*
X63354Y-41107D01*
X63437Y-41308D01*
X63590Y-41461D01*
X63682Y-41499D01*
X63591Y-41537D01*
X63438Y-41690D01*
X63354Y-41891D01*
X63354Y-42107D01*
X63437Y-42308D01*
X63590Y-42461D01*
X63791Y-42545D01*
X64007Y-42545D01*
X64208Y-42462D01*
X64361Y-42309D01*
X64445Y-42108D01*
X64445Y-41892D01*
X64445Y-43730D01*
X61925Y-43730D01*
X61925Y-36396D01*
X61925Y-33396D01*
X61845Y-33203D01*
X61697Y-33055D01*
X61504Y-32975D01*
X61296Y-32974D01*
X61103Y-33054D01*
X60955Y-33202D01*
X60899Y-33335D01*
X60845Y-33203D01*
X60697Y-33055D01*
X60504Y-32975D01*
X60296Y-32974D01*
X60103Y-33054D01*
X59955Y-33202D01*
X59899Y-33335D01*
X59845Y-33203D01*
X59697Y-33055D01*
X59504Y-32975D01*
X59296Y-32974D01*
X59103Y-33054D01*
X58955Y-33202D01*
X58899Y-33335D01*
X58845Y-33203D01*
X58697Y-33055D01*
X58504Y-32975D01*
X58296Y-32974D01*
X58103Y-33054D01*
X57955Y-33202D01*
X57899Y-33335D01*
X57845Y-33203D01*
X57697Y-33055D01*
X57504Y-32975D01*
X57296Y-32974D01*
X57103Y-33054D01*
X56955Y-33202D01*
X56899Y-33335D01*
X56845Y-33203D01*
X56697Y-33055D01*
X56504Y-32975D01*
X56296Y-32974D01*
X56103Y-33054D01*
X55955Y-33202D01*
X55875Y-33395D01*
X55874Y-33603D01*
X55954Y-33797D01*
X56102Y-33944D01*
X56295Y-34024D01*
X56503Y-34025D01*
X56697Y-33945D01*
X56844Y-33797D01*
X56900Y-33664D01*
X56954Y-33797D01*
X57102Y-33944D01*
X57295Y-34024D01*
X57503Y-34025D01*
X57697Y-33945D01*
X57844Y-33797D01*
X57900Y-33664D01*
X57954Y-33797D01*
X58102Y-33944D01*
X58295Y-34024D01*
X58503Y-34025D01*
X58697Y-33945D01*
X58844Y-33797D01*
X58900Y-33664D01*
X58954Y-33797D01*
X59102Y-33944D01*
X59295Y-34024D01*
X59503Y-34025D01*
X59697Y-33945D01*
X59844Y-33797D01*
X59900Y-33664D01*
X59954Y-33797D01*
X60102Y-33944D01*
X60295Y-34024D01*
X60503Y-34025D01*
X60697Y-33945D01*
X60844Y-33797D01*
X60900Y-33664D01*
X60954Y-33797D01*
X61102Y-33944D01*
X61295Y-34024D01*
X61503Y-34025D01*
X61697Y-33945D01*
X61844Y-33797D01*
X61924Y-33604D01*
X61925Y-33396D01*
X61925Y-36396D01*
X61845Y-36203D01*
X61697Y-36055D01*
X61504Y-35975D01*
X61296Y-35974D01*
X61103Y-36054D01*
X60955Y-36202D01*
X60875Y-36395D01*
X60874Y-36603D01*
X60954Y-36797D01*
X61102Y-36944D01*
X61295Y-37024D01*
X61503Y-37025D01*
X61697Y-36945D01*
X61844Y-36797D01*
X61924Y-36604D01*
X61925Y-36396D01*
X61925Y-43730D01*
X61425Y-43730D01*
X61425Y-39725D01*
X61425Y-39175D01*
X61387Y-39083D01*
X61316Y-39013D01*
X61224Y-38975D01*
X61125Y-38974D01*
X60575Y-38974D01*
X60483Y-39012D01*
X60413Y-39083D01*
X60375Y-39175D01*
X60374Y-39274D01*
X60374Y-39824D01*
X60412Y-39916D01*
X60483Y-39986D01*
X60575Y-40024D01*
X60674Y-40025D01*
X61224Y-40025D01*
X61316Y-39987D01*
X61386Y-39916D01*
X61424Y-39824D01*
X61425Y-39725D01*
X61425Y-43730D01*
X54450Y-43730D01*
X54450Y-29269D01*
X71850Y-29269D01*
X71850Y-43730D01*
M02*
